<?xml version="1.0" encoding="UTF-8" standalone="no"?>
<!DOCTYPE svg PUBLIC "-//W3C//DTD SVG 1.1//EN" "http://www.w3.org/Graphics/SVG/1.1/DTD/svg11.dtd">
<svg width="100%" height="100%" viewBox="0 0 170 170" version="1.1" xmlns="http://www.w3.org/2000/svg" xmlns:xlink="http://www.w3.org/1999/xlink" xml:space="preserve" xmlns:serif="http://www.serif.com/" style="fill-rule:evenodd;clip-rule:evenodd;stroke-linejoin:round;stroke-miterlimit:2;">
    <g transform="matrix(1.34146,0,0,1.34146,-43.7805,-45.122)">
        <circle cx="96" cy="97" r="41" style="fill:rgb(107,192,72);"/>
    </g>
    <g transform="matrix(1.94444,0,0,1,-10.8333,22)">
        <path d="M57,74L59.571,83L23.057,83C22.279,79.945 21.781,77.785 21.514,74L57,74Z" style="fill:white;"/>
    </g>
    <g transform="matrix(0.927721,-1.70886,0.878842,0.477113,18.439,133.161)">
        <path d="M61.933,65.517C61.862,66.904 58.848,74.03 56.774,77.251L30.378,81.219C30.378,81.219 50.139,26.837 50.135,26.227L31.319,30.096L28.388,19.599L61.435,14.299L41.323,69.077L61.933,65.517Z" style="fill:white;"/>
    </g>
    <g transform="matrix(1,0,0,1,23,23)">
        <path d="M45,84L33,109C29.558,106.888 26.57,104.549 24,102L33,84L45,84Z" style="fill:white;"/>
    </g>
</svg>
