<?xml version="1.0" encoding="UTF-8" standalone="no"?>
<svg width="400" height="400" viewBox="0 0 400 400" version="1.1" xmlns="http://www.w3.org/2000/svg">
    <!-- Green circular background -->
    <circle cx="200" cy="200" r="190" fill="#8BC34A" />
    
    <!-- White sections forming the design -->
    <g fill="white">
        <!-- Left diagonal section -->
        <polygon points="50,320 50,250 170,50 210,50 210,90 130,250 130,320" />
        
        <!-- Right section -->
        <polygon points="190,50 230,50 350,250 350,320 310,320 200,100" />
        
        <!-- Horizontal bar -->
        <rect x="50" y="260" width="300" height="20" />
        
        <!-- Bottom section -->
        <rect x="50" y="320" width="300" height="60" />
    </g>
    
    <!-- Green triangle cutout in bottom left -->
    <polygon points="50,360 120,290 50,290" fill="#8BC34A" />
</svg>0" encoding="UTF-8" standalone="no"?>
<svg width="400" height="400" viewBox="0 0 400 400" version="1.1" xmlns="http://www.w3.org/2000/svg" style="fill-rule:evenodd;clip-rule:evenodd;stroke-linejoin:round;stroke-miterlimit:2;">
    <!-- Green circular background -->
    <circle cx="200" cy="200" r="190" fill="#8BC34A" />
    
    <!-- White "A" letter -->
    <g fill="white">
        <!-- Main A shape as single path -->
        <path d="M200 60 L280 320 L240 320 L225 280 L175 280 L160 320 L120 320 L200 60 Z M190 220 L210 220 L200 190 L190 220 Z"/>
    </g>
    
    <!-- Bottom white section -->
    <rect x="20" y="320" width="360" height="40" fill="white" />
    
    <!-- Green triangle in bottom left -->
    <path d="M20 360 L80 360 L20 400 Z" fill="#8BC34A" />
</svg>