<svg class="logo__svg" version="1.1" viewBox="0 0 40 40" xmlns="http://www.w3.org/2000/svg">
	<path d="m15.844 11.824c-2.3828 6.5039-5.6172 15.301-7.1797 19.547l-2.8359 7.7188-2.9102 0.03125-2.918 0.035156v0.89062h13.309v-0.89453h-3.2422c-1.7734 0-3.2344-0.011719-3.2344-0.03125 0-0.019532 0.75781-2.1328 1.6836-4.6875l1.6758-4.6562 5.7188-0.03125 5.7109-0.03125 1.7461 4.4961c0.96094 2.4727 1.7695 4.5664 1.8008 4.6523 0.046875 0.12109-0.36328 0.16016-1.8398 0.16016h-1.8945v1.0234h19.547v-1.0156l-2.3203-0.039062-2.3203-0.03125-8.0195-19.48c-4.4023-10.711-8.0352-19.48-8.0703-19.48-0.027344-0.0078125-2.0117 5.3203-4.4023 11.824m2.75 10.199c1.4297 3.6602 2.6016 6.6875 2.6016 6.7266s-2.3828 0.070312-5.3008 0.070312c-2.9141 0-5.2969-0.042968-5.2969-0.09375 0-0.5625 5.1328-13.906 5.25-13.656 0.078126 0.16016 1.3086 3.2891 2.7461 6.9531" fill-rule="evenodd" />
</svg>