<svg xmlns="http://www.w3.org/2000/svg" xml:space="preserve" style="fill-rule:evenodd;clip-rule:evenodd;stroke-linejoin:round;stroke-miterlimit:2" viewBox="0 0 170 170"><circle cx="96" cy="97" r="41" style="fill:#6bc048" transform="translate(-43.78 -45.122)scale(1.34146)"/><path d="m57 74 2.571 9H23.057c-.778-3.055-1.276-5.215-1.543-9Z" style="fill:#fff" transform="matrix(1.94444 0 0 1 -10.833 22)"/><path d="M61.933 65.517c-.071 1.387-3.085 8.513-5.159 11.734l-26.396 3.968s19.761-54.382 19.757-54.992l-18.816 3.869-2.931-10.497 33.047-5.3-20.112 54.778Z" style="fill:#fff" transform="rotate(-61.503 121.125 51.085)scale(1.94445 1)"/><path d="m45 84-12 25c-3.442-2.112-6.43-4.451-9-7l9-18Z" style="fill:#fff" transform="translate(23 23)"/></svg>