<svg version="1.1" id="Capa_1" xmlns="http://www.w3.org/2000/svg" x="0" y="0" width="42.893" height="42.893" style="enable-background:new 0 0 42.893 42.893" xml:space="preserve"><path d="M41.777 15.04a2.487 2.487 0 0 0-1.047-.386V3.894a2.5 2.5 0 0 0-2.5-2.5H4.657a2.5 2.5 0 0 0-2.5 2.5v10.762a2.492 2.492 0 0 0-1.045.385A2.5 2.5 0 0 0 0 17.12v21.879c0 1.381 1.118 2.5 2.5 2.5h37.893a2.5 2.5 0 0 0 2.5-2.5V17.12a2.513 2.513 0 0 0-1.116-2.08zM35.73 6.394v9.959L21.444 22.3 7.157 16.353V6.394H35.73zm-24.618 3.885a1.5 1.5 0 0 1 1.5-1.5h17.666a1.5 1.5 0 1 1 0 3H12.612a1.5 1.5 0 0 1-1.5-1.5zm0 5.167a1.5 1.5 0 0 1 1.5-1.5h17.666a1.5 1.5 0 1 1 0 3H12.612a1.5 1.5 0 0 1-1.5-1.5z"/></svg>