<svg version="1.1" id="Capa_1" xmlns="http://www.w3.org/2000/svg" x="0" y="0" viewBox="0 0 60 60" style="enable-background:new 0 0 60 60" xml:space="preserve"><path d="M2 8.5h56v6H2zM4 1.5h52v6H4zM31.18 43.036 58.622 15.5H1.376l27.471 27.562c.635.59 1.673.588 2.333-.026z"/><path d="M32.57 44.474a3.777 3.777 0 0 1-2.58 1.019 3.705 3.705 0 0 1-2.533-.993L0 16.953V58.5h60V16.951L32.57 44.474zM54 53.5H41a1 1 0 1 1 0-2h13a1 1 0 1 1 0 2zm0-4h-8a1 1 0 1 1 0-2h8a1 1 0 1 1 0 2zm0-4h-8a1 1 0 1 1 0-2h8a1 1 0 1 1 0 2z"/></svg>