<svg version="1.1" id="Capa_1" xmlns="http://www.w3.org/2000/svg" x="0" y="0" viewBox="0 0 26 26" style="enable-background:new 0 0 26 26" xml:space="preserve"><path style="fill:#030104" d="M18 17.759v3.366A1.877 1.877 0 0 1 16.125 23H4.875A1.877 1.877 0 0 1 3 21.125V9.875C3 8.841 3.841 8 4.875 8h3.429l3.001-3h-6.43A4.874 4.874 0 0 0 0 9.875v11.25A4.874 4.874 0 0 0 4.875 26h11.25A4.874 4.874 0 0 0 21 21.125v-6.367l-3 3.001z"/><path style="fill:#030104" d="M22.581 0H12.322c-1.886.002-1.755.51-.76 1.504l3.22 3.22-5.52 5.519a2.926 2.926 0 0 0 0 4.141l2.41 2.411a2.93 2.93 0 0 0 4.14-.001l5.52-5.52 3.16 3.16c1.101 1.1 1.507 1.129 1.507-.757L26 3.419c-.001-3.437.024-3.42-3.419-3.419z"/></svg>