<svg xmlns="http://www.w3.org/2000/svg" xml:space="preserve" style="fill-rule:evenodd;clip-rule:evenodd;stroke-linejoin:round;stroke-miterlimit:2" viewBox="0 0 175 175"><path d="M2.9 54.8 53.4 4.3C27 7.3 6.1 28.3 2.9 54.8M117 68.6l-50.5 50.5c26.4-3 47.3-24 50.5-50.5M72.4 5.3 35.1 42.6 23.5 54.3c-1.4 1.4-3.6 1.4-4.9 0-1.4-1.4-3.3-1.1-4.7.2L2.6 65.8c.4 5.4 1.5 10.6 3.2 15.4L79.6 7.4q-3.45-1.35-7.2-2.1M92.7 14.2l-28 28-4 4.1c-1.4 1.4-3.6 1.4-4.9 0s-3.3-1.1-4.7.2l-42 42.1c2.1 4 4.6 7.7 7.6 11.1L98 18.4c-1.7-1.5-3.4-2.8-5.2-4.1ZM107.3 29 77 59.3l-4 4.1c-1.4 1.4-3.6 1.4-4.9 0s-3.3-1.1-4.7.2L22 105c3.3 3 7 5.5 11 7.7l77.8-77.9c-1.1-2-2.2-4-3.5-5.8M116.1 49.5l-1.9 1.9-2.7 2.8c-1.4 1.4-3.6 1.4-4.9 0s-3.3-1.1-4.7.2l-61.7 61.7c4.8 1.8 10 2.9 15.3 3.3l61.6-61.6c-.2-2.8-.6-5.5-1.1-8.2Z" style="fill:#102a63;fill-rule:nonzero" transform="translate(27.4 25.7)"/></svg>