<svg xmlns="http://www.w3.org/2000/svg" xml:space="preserve" id="Ebene_1" width="595" height="623" x="0" y="0" baseProfile="tiny" viewBox="0 0 595 623"><path fill="#00305d" d="M47.209 220.56c5.684 1.836 11.792-1.27 13.633-6.953s-1.265-11.787-6.948-13.633c-5.684-1.855-11.782 1.27-13.623 6.953-1.851 5.684 1.254 11.778 6.938 13.633M41.75 354.251c5.903-.938 9.937-6.475 8.999-12.373-.933-5.908-6.475-9.932-12.383-8.994a10.797 10.797 0 0 0-8.975 12.383c.928 5.898 6.461 9.912 12.359 8.984M97.595 475.853c4.834-3.516 5.908-10.283 2.412-15.117-3.525-4.834-10.293-5.898-15.137-2.383-4.834 3.496-5.889 10.264-2.373 15.107 3.506 4.834 10.264 5.908 15.098 2.393M202.546 558.851c2.725-5.322.605-11.846-4.707-14.561-5.342-2.715-11.846-.586-14.57 4.736-2.705 5.322-.586 11.826 4.756 14.551 5.322 2.715 11.806.596 14.521-4.726M333.757 585.149c0-5.986-4.824-10.82-10.801-10.82-5.996 0-10.84 4.834-10.84 10.82 0 5.977 4.844 10.811 10.84 10.801 5.967.01 10.801-4.824 10.801-10.801M161.218 65.228l-4.756 4.043 20.557 24.131c5.771 6.768 7.09 13.193 4.258 20.518-1.465 3.662-3.867 7.012-6.973 9.658-9.18 7.822-21.133 7.51-28.203-.791l-22.07-25.898-4.746 4.043-1.992-2.344 15.068-12.832 2.002 2.344-4.756 4.043 20.4 23.945c6.523 7.656 15.283 8.828 22.314 2.842 7.217-6.143 7.725-15.43 1.25-23.037l-20.342-23.867-4.746 4.043-1.992-2.344 12.725-10.84ZM235.007 84.095l-16.621 8.799-1.436-2.725 5.518-2.91-11.406-21.543c-2.07-3.906-5.332-5.283-8.574-3.574-3.154 1.68-4.258 4.043-6.758 14.785l10.117 19.121 5.586-2.959 1.445 2.725-16.699 8.828-1.445-2.715 5.586-2.959-14.004-26.475-6.396 3.389-1.045-1.982 9.063-8.477 1.328-.703 4.355 8.242c2.129-9.316 4.248-12.979 8.945-15.469 5.449-2.881 10.703-1.143 13.691 4.531L228.054 84.3l5.508-2.92ZM257.37 77.171l-17.861 6.123-1.006-2.91 5.986-2.051-9.717-28.34-6.846 2.363-.732-2.129 10.283-6.963 1.416-.479 11.504 33.516 5.977-2.041Zm-27.822-50.888c2.354-.801 4.795.391 5.576 2.666.801 2.363-.391 4.795-2.744 5.605-2.285.781-4.717-.41-5.518-2.773a4.29 4.29 0 0 1 2.686-5.498M287.907 34.994l-3.428.703-6.191 37.676-1.631.332-21.347-32.012-3.438.615-.615-3.018 15.82-3.203.605 3.008-5.703 1.162 14.58 22.09 4.248-25.908-5.449 1.113-.615-3.027 12.549-2.549ZM302.683 43.958c.488-6.523 4.561-10.771 10.625-11.016 4.824-.205 8.379 3.232 8.594 8.223l.078 1.992Zm24.277 17.061c-4.531 3.193-6.748 4.111-10.078 4.248-7.891.322-13.672-6.68-14.102-17.07l-.039-.918 26.191-1.074-.098-2.246c-.371-8.984-6.777-14.883-15.752-14.512-10.303.43-17.529 9.219-17.041 20.859.469 11.465 8.281 19.316 18.848 18.867 4.814-.195 7.686-1.309 13.77-5.137ZM354.294 69.964l-20.439-2.1.313-3.066 6.289.645 3.066-29.785-7.207-.742.234-2.246 12.246-1.992 1.484.156-.947 9.268c6.748-7.002 9.072-8.604 12.061-8.301.996.107 1.797.439 2.246.986l2.324 2.5-5.391 5.293c-1.494-1.738-2.578-2.598-3.398-2.695-1.504-.146-3.125 1.113-8.242 6.191l-2.266 22.012 7.939.82ZM367.741 72.884l-3.232-.781 2.783-11.484 3.721.898-.537 2.188c-.84 3.477 2.949 7.646 7.969 8.867 4.434 1.074 8.32-.469 9.102-3.701.791-3.232-1.035-5.557-8.73-10.947-7.031-4.863-9.063-8.525-7.822-13.613 1.533-6.309 7.666-9.355 15.107-7.559 3.555.859 6.094 2.422 7.9 4.824l1.191-2.793 3.477.84-4.775 11.182-3.467-.85a9 9 0 0 0 1.133-2.539c.771-3.164-2.246-6.631-6.611-7.686-4.199-1.025-7.5.576-8.35 4.053-.84 3.477-.381 4.023 8.447 10.352 7.168 5.078 9.023 8.35 7.764 13.535-1.572 6.465-7.686 9.766-14.873 8.027-4.531-1.094-7.676-2.969-9.492-5.723ZM413.62 86.273l-17.676-6.67 1.094-2.881 5.918 2.236 10.576-28.027-6.768-2.559.781-2.09 12.363 1.191 1.406.527-12.529 33.164 5.908 2.227Zm11.006-56.943c2.334.879 3.447 3.35 2.598 5.605-.889 2.344-3.35 3.457-5.684 2.578-2.256-.859-3.369-3.32-2.49-5.664a4.303 4.303 0 0 1 5.576-2.519M438.532 94.623c-5.498 1.152-7.324 1.074-10.088-.303-4.307-2.158-5.566-6.143-3.301-10.674l11.484-23.008-6.465-3.223.996-2.012 7.295 1.602 5.127-10.273 5.371 2.676-5.254 10.488 9.229 4.619-1.709 3.418-9.229-4.609-11.162 22.324c-1.406 2.822-.957 4.346 1.494 5.586 1.563.771 2.686.967 5.947.732ZM489.46 73.851c1.309-1.924.879-4.541-1.035-5.85-1.914-1.328-4.512-.781-5.83 1.133-1.279 1.855-.85 4.473 1.074 5.781 1.924 1.329 4.521.782 5.791-1.064m-19.658 41.104-5.283-3.633 14.512-21.113c3.105-4.531 1.201-10.273-4.834-14.424-6.24-4.287-12.861-4.502-15.596-.518-.518.762-.684 1.152-.771 2.305l7.334 2.402 2.266-3.291c2.637.4 3.672.811 5.039 1.748 2.754 1.895 3.438 5.293 1.563 8.037l-5.332 7.744-13.555-5.371c-3.818-1.514-8.066-.186-10.459 3.32-3.154 4.59-1.924 10.283 2.813 13.535 3.643 2.49 7.236 2.842 12.568 1.26-.195.264-.342.479-.488.684-1.738 2.529-1.543 4.893.586 6.357.547.371 1.66.83 2.734 1.172l5.586 1.699Zm7.51-49.444c1.318-1.924.898-4.531-1.025-5.85s-4.502-.781-5.83 1.143c-1.27 1.846-.85 4.463 1.074 5.781 1.913 1.319 4.511.782 5.781-1.074m-15.489 38.721c-4.844.605-7.305.332-9.492-1.172-2.881-1.973-3.457-5.098-1.484-7.979l2.363-3.428 13.604 5.313ZM488.073 132.24c-5.605-.332-7.354-.879-9.648-2.93-3.594-3.223-3.77-7.393-.391-11.172l17.129-19.18-5.41-4.824 1.504-1.68 6.621 3.467 7.656-8.564 4.453 3.984-7.813 8.75 7.695 6.875-2.549 2.852-7.686-6.865-16.641 18.613c-2.109 2.354-2.07 3.945-.02 5.771 1.289 1.172 2.324 1.641 5.547 2.285ZM96.765 344.642l-3.975-20.166 3.018-.596 1.211 6.123 47.832-9.424-1.201-6.123 3.018-.596 4.609 23.34c1.855 9.473-3.223 17.266-12.363 19.063-9.141 1.807-17.773-4.551-19.766-14.668-.313-1.563-.4-2.471-.41-4.678l2.852-.557c-.02 1.104.049 1.504.195 2.246 1.377 7.021 8.398 11.66 15.664 10.225 6.533-1.279 10.898-6.641 9.844-12.021l-1.758-8.906-47.09 9.287 1.357 6.934ZM144.206 378.157c2.549 5.703-1.982 13.096-10.41 16.855-8.438 3.77-16.973 2.197-19.512-3.506-2.549-5.693 2.09-13.047 10.449-16.777 8.438-3.759 16.934-2.275 19.473 3.428m-33.125 14.785c4.102 9.189 15.566 12.998 25.586 8.535 10.039-4.473 14.844-15.547 10.742-24.746-4.102-9.189-15.566-13.008-25.586-8.535-10.029 4.473-14.844 15.547-10.742 24.746M142.761 437.688c-5.381-1.65-6.943-2.588-8.691-5.127-2.734-3.975-1.934-8.066 2.246-10.947l21.172-14.59-4.102-5.967 1.836-1.279 5.615 4.922 9.463-6.514 3.398 4.932-9.658 6.66 5.85 8.496-3.145 2.168-5.859-8.496-20.547 14.18c-2.598 1.787-2.949 3.34-1.387 5.605.986 1.426 1.875 2.129 4.854 3.516ZM149.694 452.483l-2.324-2.393 8.496-8.213 2.656 2.744-1.602 1.563c-2.578 2.49-1.611 8.037 1.973 11.738 3.184 3.301 7.285 4.072 9.688 1.758 2.383-2.314 2.08-5.264-1.543-13.906-3.34-7.891-3.086-12.061.674-15.703 4.678-4.512 11.484-3.809 16.807 1.699 2.539 2.627 3.848 5.293 4.092 8.301l2.51-1.729 2.48 2.578-10 6.895-2.49-2.578c.889-.4 1.787-1.025 2.324-1.553 2.334-2.246 1.65-6.797-1.475-10.02-3.008-3.105-6.66-3.535-9.219-1.045-2.578 2.49-2.471 3.193 1.602 13.271 3.33 8.115 3.145 11.875-.684 15.586-4.785 4.629-11.719 4.16-16.865-1.172-3.232-3.34-4.893-6.611-4.951-9.902Z"/><path fill="#00305d" d="M202.097 486.946c-3.672.225-4.99-.059-7.129-1.514-5.645-3.818-5.898-10.732-.664-18.447 5.371-7.91 13.438-10.186 20.117-5.664 4.063 2.754 4.453 5.137 1.563 9.414l-10.82 15.977a68 68 0 0 0-3.067.234m11.875 10.957-5.996-4.063 31.777-46.914-1.309-.879-11.738-4.043-1.27 1.865 5.996 4.053-10.781 15.918c-1.68-3.145-2.695-4.336-5.039-5.918-9.014-6.113-21.494-3.418-27.93 6.094-5.977 8.809-5.039 19.59 2.119 24.453 3.506 2.383 6.768 2.773 13.115 1.543l-3.262 4.824 1.309.889 11.699 4.102ZM244.89 507.093c-4.59 1.66-7.031 1.943-9.512.947-3.242-1.289-4.492-4.209-3.203-7.461l1.543-3.857 14.453 2.178Zm10.156 8.701-5.957-2.373 9.492-23.799c2.031-5.107-1.094-10.293-7.891-13.008-7.031-2.793-13.535-1.543-15.332 2.939-.332.85-.41 1.27-.234 2.412l7.676.732 1.484-3.711c2.666-.186 3.77-.02 5.313.596 3.086 1.23 4.512 4.404 3.281 7.49l-3.486 8.74-14.414-2.266c-4.053-.625-7.891 1.602-9.463 5.547-2.07 5.176.4 10.459 5.723 12.588 4.102 1.631 7.695 1.182 12.539-1.553-.127.313-.225.547-.313.781-1.133 2.852-.43 5.117 1.973 6.074.615.234 1.787.439 2.92.527l5.82.449ZM334.968 531.614l-18.711-1.816.303-3.066 6.299.605 2.363-24.258c.439-4.473-1.553-7.266-5.195-7.617-2.734-.264-5 .762-8.936 4.229l-4.854 4.287-2.1 21.533 6.211.605-.303 3.076-18.711-1.836.293-3.066 6.211.605 2.383-24.258c.43-4.395-1.543-7.344-5.195-7.695-3.555-.352-5.781 1.016-13.799 8.594l-2.1 21.533 6.299.615-.303 3.066-18.789-1.836.293-3.066 6.289.615 2.91-29.814-7.197-.703.225-2.236 12.227-2.061 1.494.146-.908 9.268c6.914-6.592 10.703-8.477 15.996-7.969 5.879.586 8.809 3.965 9.014 10.42 6.914-6.602 10.693-8.486 15.908-7.979 6.133.605 9.551 4.941 8.936 11.24l-2.461 25.166 6.211.615ZM333.024 247.406c-.42-1.182-.732-2.832-.732-4.697 0-3.574.977-6.465 2.188-6.465 1.201 0 2.178 2.891 2.178 6.465 0 1.865-.283 3.555-.713 4.727h16.914c-.41-1.172-.693-2.861-.693-4.727 0-3.574.986-6.465 2.178-6.465 1.211 0 2.188 2.891 2.188 6.465 0 1.865-.273 3.555-.693 4.727h16.768c-.43-1.172-.684-2.861-.684-4.727 0-3.574.977-6.465 2.178-6.465s2.178 2.891 2.178 6.465c0 1.865-.273 3.555-.703 4.727h16.738c-.42-1.172-.684-2.861-.684-4.727 0-3.574.967-6.465 2.168-6.465 1.211 0 2.188 2.891 2.188 6.465 0 1.865-.273 3.555-.703 4.727h15.938V223.48h5.4c.615-1.65 1.592-4.619 1.484-7.988-.537-17.314 8.799-31.611 29.277-32.354-.361-1.143-.596-2.715-.596-4.443 0-3.574 1.006-6.465 2.207-6.465 1.211 0 2.217 2.891 2.217 6.465 0 1.729-.244 3.301-.615 4.443 20.488.742 29.824 15.039 29.297 32.354-.117 3.369.859 6.338 1.504 7.988h5.391v23.955h15.928c-.43-1.172-.693-2.861-.693-4.727 0-3.574.957-6.465 2.168-6.465 1.201 0 2.188 2.891 2.188 6.465 0 1.865-.273 3.555-.703 4.727h16.738c-.42-1.172-.684-2.861-.684-4.727 0-3.574.957-6.465 2.188-6.465 1.182 0 2.168 2.891 2.168 6.465 0 1.865-.273 3.555-.703 4.727h16.777c-.43-1.172-.703-2.861-.703-4.727 0-3.574.977-6.465 2.188-6.465 1.191 0 2.188 2.891 2.188 6.465 0 1.865-.283 3.555-.713 4.727h16.924c-.439-1.172-.703-2.861-.703-4.727 0-3.574.977-6.465 2.188-6.465 1.191 0 2.168 2.891 2.168 6.465 0 1.865-.303 3.516-.742 4.697v8.984H486.79v6.172h-75.566v-6.172h75.547l-37.773-20.254-37.773 20.254h-78.193v-8.983Zm153.76 15.263h78.174v135.732h-22.363c-4.521 11.455-25.918 21.006-55.83 25.439v-22.773c27.031-3.701 55.293-13.379 55.449-27.109.137-12.09-22.773-22.754-55.43-27.383Zm55.801 83.926h10.898v-68.222h-10.898Zm-22.354 0h10.898v-68.222h-10.898Zm-22.275 0h10.908v-68.222h-10.908Zm20.215 27.441c0-8.33-14.59-14.688-31.406-18.125v36.25c18.906-3.848 31.406-10.547 31.406-18.125m-39.531-27.48v-68.125h-10.898v68.125Zm-67.412 54.511v22.773c-29.912-4.434-51.318-13.984-55.83-25.439h-22.373V262.669h78.193v83.906c-32.686 4.629-55.586 15.293-55.449 27.383.175 13.73 28.427 23.408 55.459 27.109m-22.1-54.472h10.898v-68.222h-10.898Zm-22.266 0h10.889v-68.222h-10.889Zm-11.465-68.222h-10.898v68.222h10.898Zm24.434 95.663c0 7.578 12.48 14.277 31.396 18.125v-36.25c-16.826 3.438-31.396 9.795-31.396 18.125m37.998 18.145h62.363v-36.465h-62.363Zm41.592-45.625v-68.125h-20.84v68.125Zm-29.17 0v-68.125h-10.889v68.125Z"/></svg>