<svg xmlns:dc="http://purl.org/dc/elements/1.1/" xmlns:cc="http://creativecommons.org/ns#" xmlns:rdf="http://www.w3.org/1999/02/22-rdf-syntax-ns#" xmlns:svg="http://www.w3.org/2000/svg" xmlns="http://www.w3.org/2000/svg" xmlns:sodipodi="http://sodipodi.sourceforge.net/DTD/sodipodi-0.dtd" xmlns:inkscape="http://www.inkscape.org/namespaces/inkscape" id="Layer_1" x="0px" y="0px" viewBox="0 0 856.15051 563.1889" xml:space="preserve" sodipodi:docname="Nissan 350Z cut.svg" width="856.15051" height="563.1889" inkscape:version="0.92.2 5c3e80d, 2017-08-06"><metadata id="metadata6627"></metadata><defs id="defs6625"></defs><style type="text/css" id="style6240">
	.st0{font-family:'MyriadPro-Regular';}
	.st1{font-size:97.9368px;}
	.st2{fill-rule:evenodd;clip-rule:evenodd;}
	.st3{fill:none;stroke:#000000;stroke-width:1.000000e-03;stroke-miterlimit:10;}
	.st4{fill-rule:evenodd;clip-rule:evenodd;fill:none;stroke:#000000;stroke-width:1.000000e-03;stroke-miterlimit:10;}
</style><g id="g6386" transform="translate(-321.48892,-369.25317)"><g id="g6262"><path d="m 399.37,720.92 c -19.34,-2.35 -18.81,-1.54 -19.38,14.29 -0.49,13.45 0.86,63.08 2.23,82.27 1.19,16.61 2.97,24.85 5.8,26.97 2.41,1.81 9.63,3.51 24.91,5.92 10.18,1.62 8.99,1.11 -4.12,-1.79 -15.01,-3.34 -17.73,-4.23 -19.65,-6.4 -2.85,-3.22 -3.74,-11.18 -4.76,-43.09 -2.4,-68.75 -3.04,-75.82 0.93,-76.98 0.75,-0.21 10.48,0.12 17.39,0.48 13.39,0.68 12.56,0.29 -3.35,-1.67 z" id="path6250" inkscape:connector-curvature="0"></path><path d="m 405.83,743.67 c -0.15,-8.24 -0.25,-13.39 -0.65,-17.39 -7.19,-0.34 -4.8,-0.22 -12.24,-0.57 -0.55,12.44 3.31,96.8 4.66,113.35 10.13,4.33 10.32,4.6 10.36,3.61 0.04,-0.83 -1.67,-74.69 -2.13,-99 z" id="path6252" inkscape:connector-curvature="0"></path><path d="m 485.65,647.88 c -0.63,0.46 -1.25,0.98 -1.43,1.15 -0.32,0.44 -14.57,0.33 -14.55,-0.09 0.01,-0.14 0.43,-0.71 0.96,-1.27 1.8,-1.89 0.48,-1.05 -1.55,0.97 l -2,1.99 c 16.87,-0.06 16.85,0.13 18.54,-2.05 1.15,-1.51 1.15,-1.51 0.03,-0.7 z" id="path6254" inkscape:connector-curvature="0"></path><path d="m 428.63,644.04 c 7.4,2.91 15.1,1.23 20.66,-4.52 9.33,-9.63 7.12,-25.22 -4.48,-31.8 -2.98,-1.7 -4.18,-2.04 -7.56,-2.23 -5,-0.23 -7.92,0.46 -11.51,2.72 -8.19,5.14 -11.6,16.12 -7.79,25.15 1.91,4.57 6.31,9.01 10.68,10.68 z m 17.63,-10.43 c 0.31,-0.19 0.58,-0.11 0.56,0.2 -0.05,1.11 -5.23,5 -7.33,5.49 -2.68,0.64 -3.25,0.61 -6.13,-0.46 -2.35,-0.91 -6.55,-3.92 -7.78,-5.64 -1.11,-1.48 0.19,-1.97 4.65,-1.8 3.89,0.18 11.05,-1.43 15.38,-3.45 l 2.2,-1.01 -3.04,3.4 c -1.63,1.87 -2.88,3.65 -2.73,3.93 0.27,0.48 2.94,0.05 4.22,-0.66 z m -20.61,-15.99 c 0.77,-0.76 2.95,-2.12 4.84,-3 4.73,-2.14 8.55,-1.96 12.51,0.62 1.57,1.04 2.86,2.15 2.85,2.49 -0.01,0.31 -0.88,1.73 -1.89,3.14 -1.29,1.75 -2.75,2.93 -4.8,3.77 -3.43,1.47 -4.5,1.52 -5.42,0.23 -0.57,-0.79 -0.55,-1.17 0.06,-2.11 1.15,-1.68 -0.03,-2.29 -4.04,-2.06 -2.49,0.13 -3.66,-0.07 -4.44,-0.73 -1.11,-0.89 -1.07,-0.92 0.33,-2.35 z" id="path6256" inkscape:connector-curvature="0"></path><path d="m 404.29,573.85 c 1.22,-0.26 13.34,-6.87 14.39,-7.83 0.5,-0.47 -5.68,2.17 -16.98,7.05 l -2.1,4.17 c -2.98,5.87 -5.25,14.02 -5.86,20.94 l -0.49,5.74 1.07,-5.16 c 2.19,-10.86 7.63,-24.39 9.97,-24.91 z" id="path6258" inkscape:connector-curvature="0"></path><path d="m 455.89,566.99 c 1.5,0.12 2.9,0.81 3.93,1.93 2.86,3.12 7.25,9.82 7.7,9.84 0.4,0.02 -1.37,-3.22 -4.05,-7.34 -3.68,-5.73 -4.14,-5.96 -12.61,-6.63 -7,-0.57 -21.45,-0.66 -21,-0.15 0.13,0.14 5.89,0.41 13.62,1.02 z" id="path6260" inkscape:connector-curvature="0"></path></g><g id="g6298"><path d="m 432.53,574.98 c -0.94,0.13 -1.85,0.27 -2.73,0.44 v 16.47 c 0.46,-0.1 2.72,-0.52 2.73,-0.52 z" id="path6264" inkscape:connector-curvature="0"></path><path d="m 428.02,575.77 c -0.95,0.21 -1.86,0.44 -2.73,0.69 v 16.9 c 1.75,-0.75 2.54,-0.92 2.73,-0.98 z" id="path6266" inkscape:connector-curvature="0"></path><path d="m 437.05,574.53 c -0.94,0.06 -1.85,0.14 -2.73,0.23 v 16.47 c 2.12,-0.13 1.47,-0.14 2.73,-0.05 z" id="path6268" inkscape:connector-curvature="0"></path><path d="m 414.49,581.33 c -1.01,0.68 -1.92,1.38 -2.73,2.09 v 20.41 c 0.86,-1.06 1.77,-2.08 2.73,-3.04 z" id="path6270" inkscape:connector-curvature="0"></path><path d="m 416.27,599.12 c 0.88,-0.77 1.79,-1.5 2.73,-2.19 v -18.15 c -0.98,0.46 -1.88,0.94 -2.73,1.44 z" id="path6272" inkscape:connector-curvature="0"></path><path d="m 423.51,577 c -0.96,0.31 -1.87,0.65 -2.73,1 v 17.7 c 0.88,-0.54 2.66,-1.53 2.73,-1.56 z" id="path6274" inkscape:connector-curvature="0"></path><path d="m 441.56,574.38 c -0.93,0 -1.85,0.02 -2.73,0.06 v 16.87 c 0.97,0.06 0.62,0 2.73,0.42 z" id="path6276" inkscape:connector-curvature="0"></path><path d="m 468.62,587.19 c -0.81,-1.33 -1.72,-2.59 -2.73,-3.76 v 19.13 h 2.73 z" id="path6278" inkscape:connector-curvature="0"></path><path d="m 472.57,602.56 c 0,-4.08 -0.35,-7.58 -2.17,-11.89 v 11.89 z" id="path6280" inkscape:connector-curvature="0"></path><path d="m 470.4,611.86 c 3.15,0.02 5.28,0 10.03,0.24 l -1.36,-3.2 -8.66,0.42 v 2.54 z" id="path6282" inkscape:connector-curvature="0"></path><path d="m 461.38,604.44 c 1.02,1.24 1.8,2.24 2.73,3.59 v -4.89 l -0.39,-0.58 h 0.39 v -20.99 c -0.86,-0.82 -1.77,-1.57 -2.73,-2.27 z" id="path6284" inkscape:connector-curvature="0"></path><path d="m 446.07,574.37 h -2.73 v 17.73 c 0.64,0.21 2.16,0.7 2.73,0.9 z" id="path6286" inkscape:connector-curvature="0"></path><path d="m 407.37,610.32 c 0.79,-1.44 1.66,-2.83 2.6,-4.16 v -21.07 c -1.12,1.15 -2.01,2.28 -2.73,3.34 0,23.52 -0.06,21.88 0.13,21.89 z" id="path6288" inkscape:connector-curvature="0"></path><path d="m 450.58,574.74 c -0.9,-0.15 -1.81,-0.26 -2.73,-0.32 v 19.34 c 0.93,0.43 1.85,0.89 2.73,1.4 z" id="path6290" inkscape:connector-curvature="0"></path><path d="m 455.09,575.95 c -0.89,-0.33 -1.8,-0.6 -2.73,-0.83 v 21.15 c 1.66,1.08 2.22,1.56 2.73,1.97 z" id="path6292" inkscape:connector-curvature="0"></path><path d="m 459.6,578.12 c -0.88,-0.53 -1.79,-1.02 -2.73,-1.44 v 23.07 c 0.95,0.85 1.86,1.75 2.73,2.68 z" id="path6294" inkscape:connector-curvature="0"></path><path d="m 468.62,609.4 -0.33,0.02 -2.4,-3.61 v 5.04 c 0.19,0.33 0.39,0.65 0.58,0.99 0.72,0 1.44,0.01 2.16,0.01 v -2.45 z" id="path6296" inkscape:connector-curvature="0"></path></g><g id="g6304"><path class="st2" d="m 779.47,657.49 c -0.03,-1.58 -1.49,-1.61 -1.49,-1.61 -0.86,-0.11 -1.73,-0.21 -2.61,-0.31 -3.13,-9.01 -13.51,-15.63 -25.84,-15.63 -12.23,0 -22.55,6.52 -25.77,15.42 -0.71,0.12 -1.37,0.23 -2.04,0.35 -1.89,0.29 -2.02,1.4 -2.02,1.47 -0.43,1.43 -0.17,6.2 0,7.81 0.13,1.72 1.81,1.58 1.89,1.61 0.63,0.11 1.33,0.22 2.08,0.31 3.12,9.03 13.51,15.67 25.85,15.67 12.3,0 22.66,-6.59 25.82,-15.57 1.61,-0.17 2.51,-0.29 2.51,-0.29 1.53,-0.11 1.56,-1.62 1.56,-1.64 0.29,-2.22 0.07,-7.59 0.06,-7.59 z m -29.94,-12.35 c 8.37,0 15.56,4.03 18.65,9.79 -14.72,-1.03 -30.28,-0.58 -37.13,-0.3 3.18,-5.6 10.25,-9.49 18.48,-9.49 z m 13.5,18.42 h -2.06 l -0.62,-0.95 h -3.29 l -0.51,0.95 h -2.06 l 2.88,-5.34 h 2.57 z m -13.98,-1.98 c 0,0 -1.23,-0.09 -1.44,-1.38 v -0.26 c 0,0 -0.1,-1.38 1.64,-1.72 h 4.63 v 1.38 h -4.21 v 0.78 h 3.5 c 0,0 1.23,0.34 1.23,1.38 v 0.26 c 0,0 0.1,1.12 -1.13,1.55 h -5.55 v -1.29 h 4.83 v -0.69 h -3.5 z m -7.4,0 c 0,0 -1.23,-0.09 -1.44,-1.38 v -0.26 c 0,0 -0.1,-1.38 1.64,-1.72 h 4.63 v 1.38 h -4.21 v 0.78 h 3.5 c 0,0 1.23,0.34 1.23,1.38 v 0.26 c 0,0 0.1,1.12 -1.13,1.55 h -5.55 v -1.29 h 4.83 v -0.69 h -3.5 z m -2.67,-3.36 v 5.34 h -2.26 v -5.34 z m -9.05,1.81 v 3.53 h -1.95 v -5.34 h 3.29 l 2.36,3.79 v -3.79 h 1.64 v 5.34 h -2.98 z m 19.6,17.34 c -8.39,0 -15.59,-4.05 -18.67,-9.83 10.67,0.67 25.74,0.87 37.3,0.07 -3.11,5.74 -10.28,9.76 -18.63,9.76 z m 21.52,-13.81 h -3.08 l -2.47,-3.62 v 3.62 h -1.95 v -5.34 h 3.39 l 2.16,3.71 v -3.71 h 1.95 z" id="path6300" inkscape:connector-curvature="0" style="clip-rule:evenodd;fill-rule:evenodd"></path><polygon class="st2" points="759.64,661.23 758.72,659.68 757.79,661.23 " id="polygon6302" style="clip-rule:evenodd;fill-rule:evenodd"></polygon></g><g id="g6318"><path d="m 1099.66,720.92 c 19.34,-2.35 18.81,-1.54 19.38,14.29 0.49,13.45 -0.86,63.08 -2.23,82.27 -1.19,16.61 -2.97,24.85 -5.8,26.97 -2.41,1.81 -9.63,3.51 -24.91,5.92 -10.18,1.62 -8.99,1.11 4.12,-1.79 15.01,-3.34 17.73,-4.23 19.65,-6.4 2.85,-3.22 3.74,-11.18 4.76,-43.09 2.4,-68.75 3.04,-75.82 -0.93,-76.98 -0.75,-0.21 -10.48,0.12 -17.39,0.48 -13.39,0.68 -12.56,0.29 3.35,-1.67 z" id="path6306" inkscape:connector-curvature="0"></path><path d="m 1093.2,743.67 c 0.15,-8.24 0.25,-13.39 0.65,-17.39 7.19,-0.34 4.8,-0.22 12.24,-0.57 0.55,12.44 -3.31,96.8 -4.66,113.35 -10.13,4.33 -10.32,4.6 -10.36,3.61 -0.04,-0.83 1.67,-74.69 2.13,-99 z" id="path6308" inkscape:connector-curvature="0"></path><path d="m 1013.38,647.88 c 0.63,0.46 1.25,0.98 1.43,1.15 0.32,0.44 14.57,0.33 14.55,-0.09 -0.01,-0.14 -0.43,-0.71 -0.96,-1.27 -1.8,-1.89 -0.48,-1.05 1.55,0.97 l 2,1.99 c -16.87,-0.06 -16.85,0.13 -18.54,-2.05 -1.15,-1.51 -1.15,-1.51 -0.03,-0.7 z" id="path6310" inkscape:connector-curvature="0"></path><path d="m 1081.09,633.36 c 3.8,-9.03 0.4,-20.01 -7.79,-25.15 -3.59,-2.26 -6.52,-2.96 -11.51,-2.72 -3.39,0.19 -4.58,0.53 -7.56,2.23 -11.61,6.58 -13.81,22.17 -4.48,31.8 5.56,5.75 13.26,7.43 20.66,4.52 4.36,-1.67 8.77,-6.11 10.68,-10.68 z m -24.09,0.92 c 0.16,-0.28 -1.1,-2.07 -2.73,-3.93 l -3.04,-3.4 2.2,1.01 c 4.32,2.02 11.48,3.63 15.38,3.45 4.46,-0.17 5.76,0.32 4.65,1.8 -1.23,1.72 -5.44,4.73 -7.78,5.64 -2.88,1.07 -3.45,1.1 -6.13,0.46 -2.11,-0.49 -7.28,-4.38 -7.33,-5.49 -0.01,-0.31 0.25,-0.39 0.56,-0.2 1.27,0.7 3.94,1.13 4.22,0.66 z m 16.71,-14.32 c -0.78,0.66 -1.95,0.85 -4.44,0.73 -4.01,-0.23 -5.19,0.38 -4.04,2.06 0.61,0.94 0.63,1.32 0.06,2.11 -0.92,1.29 -2,1.24 -5.42,-0.23 -2.05,-0.84 -3.52,-2.02 -4.8,-3.77 -1,-1.41 -1.87,-2.83 -1.89,-3.14 -0.02,-0.35 1.28,-1.45 2.85,-2.49 3.95,-2.58 7.78,-2.76 12.51,-0.62 1.89,0.88 4.06,2.24 4.84,3 1.4,1.44 1.44,1.47 0.33,2.35 z" id="path6312" inkscape:connector-curvature="0"></path><path d="m 1094.74,573.85 c -1.22,-0.26 -13.34,-6.87 -14.39,-7.83 -0.5,-0.47 5.68,2.17 16.98,7.05 l 2.1,4.17 c 2.98,5.87 5.25,14.02 5.86,20.94 l 0.49,5.74 -1.07,-5.16 c -2.19,-10.86 -7.63,-24.39 -9.97,-24.91 z" id="path6314" inkscape:connector-curvature="0"></path><path d="m 1043.14,566.99 c -1.5,0.12 -2.9,0.81 -3.93,1.93 -2.86,3.12 -7.25,9.82 -7.7,9.84 -0.4,0.02 1.37,-3.22 4.05,-7.34 3.68,-5.73 4.14,-5.96 12.61,-6.63 7,-0.57 21.45,-0.66 21,-0.15 -0.13,0.14 -5.89,0.41 -13.62,1.02 z" id="path6316" inkscape:connector-curvature="0"></path></g><g id="g6354"><path d="m 1066.5,574.98 c 0.94,0.13 1.85,0.27 2.73,0.44 v 16.47 c -0.46,-0.1 -2.72,-0.52 -2.73,-0.52 z" id="path6320" inkscape:connector-curvature="0"></path><path d="m 1071.01,575.77 c 0.95,0.21 1.86,0.44 2.73,0.69 v 16.9 c -1.75,-0.75 -2.54,-0.92 -2.73,-0.98 z" id="path6322" inkscape:connector-curvature="0"></path><path d="m 1061.99,574.53 c 0.94,0.06 1.85,0.14 2.73,0.23 v 16.47 c -2.12,-0.13 -1.47,-0.14 -2.73,-0.05 z" id="path6324" inkscape:connector-curvature="0"></path><path d="m 1084.54,581.33 c 1.01,0.68 1.92,1.38 2.73,2.09 v 20.41 c -0.86,-1.06 -1.77,-2.08 -2.73,-3.04 z" id="path6326" inkscape:connector-curvature="0"></path><path d="m 1082.77,599.12 c -0.88,-0.77 -1.79,-1.5 -2.73,-2.19 v -18.15 c 0.98,0.46 1.88,0.94 2.73,1.44 z" id="path6328" inkscape:connector-curvature="0"></path><path d="m 1075.52,577 c 0.96,0.31 1.87,0.65 2.73,1 v 17.7 c -0.88,-0.54 -2.66,-1.53 -2.73,-1.56 z" id="path6330" inkscape:connector-curvature="0"></path><path d="m 1057.47,574.38 c 0.93,0 1.85,0.02 2.73,0.06 v 16.87 c -0.97,0.06 -0.62,0 -2.73,0.42 z" id="path6332" inkscape:connector-curvature="0"></path><path d="m 1030.41,587.19 c 0.81,-1.33 1.72,-2.59 2.73,-3.76 v 19.13 h -2.73 z" id="path6334" inkscape:connector-curvature="0"></path><path d="m 1026.46,602.56 c 0,-4.08 0.35,-7.58 2.17,-11.89 v 11.89 z" id="path6336" inkscape:connector-curvature="0"></path><path d="m 1028.63,611.86 c -3.15,0.02 -5.28,0 -10.03,0.24 l 1.36,-3.2 8.66,0.42 v 2.54 z" id="path6338" inkscape:connector-curvature="0"></path><path d="m 1037.65,604.44 c -1.02,1.24 -1.8,2.24 -2.73,3.59 v -4.89 l 0.39,-0.58 h -0.39 v -20.99 c 0.86,-0.82 1.77,-1.57 2.73,-2.27 z" id="path6340" inkscape:connector-curvature="0"></path><path d="m 1052.96,574.37 h 2.73 v 17.73 c -0.64,0.21 -2.16,0.7 -2.73,0.9 z" id="path6342" inkscape:connector-curvature="0"></path><path d="m 1091.66,610.32 c -0.79,-1.44 -1.66,-2.83 -2.6,-4.16 v -21.07 c 1.12,1.15 2.01,2.28 2.73,3.34 0,23.52 0.06,21.88 -0.13,21.89 z" id="path6344" inkscape:connector-curvature="0"></path><path d="m 1048.45,574.74 c 0.9,-0.15 1.81,-0.26 2.73,-0.32 v 19.34 c -0.93,0.43 -1.85,0.89 -2.73,1.4 z" id="path6346" inkscape:connector-curvature="0"></path><path d="m 1043.94,575.95 c 0.89,-0.33 1.8,-0.6 2.73,-0.83 v 21.15 c -1.66,1.08 -2.22,1.56 -2.73,1.97 z" id="path6348" inkscape:connector-curvature="0"></path><path d="m 1039.43,578.12 c 0.88,-0.53 1.79,-1.02 2.73,-1.44 v 23.07 c -0.95,0.85 -1.86,1.75 -2.73,2.68 z" id="path6350" inkscape:connector-curvature="0"></path><path d="m 1030.41,609.4 0.33,0.02 2.4,-3.61 v 5.04 c -0.19,0.33 -0.39,0.65 -0.58,0.99 -0.72,0 -1.44,0.01 -2.16,0.01 v -2.45 z" id="path6352" inkscape:connector-curvature="0"></path></g><path d="m 910.56,514.57 c -13.82,8.14 -20.89,16.71 -39.57,22.5 -51.67,16.26 -203.33,12.47 -242.95,0 -18.75,-5.82 -25.64,-14.3 -39.57,-22.5 -5.15,-2.95 -14.53,-7.41 -14.88,-7.05 -0.14,0.1 1.8,1.16 4.3,2.32 20.14,9.6 25.62,19.95 45.79,27.9 15.33,5.96 30.64,8.62 62.71,10.78 39.5,2.68 70.72,3.77 126.27,0 32.07,-2.16 47.37,-4.82 62.71,-10.78 20.11,-7.93 25.66,-18.3 45.79,-27.9 2.5,-1.16 4.44,-2.22 4.3,-2.32 -0.37,-0.37 -9.75,4.1 -14.9,7.05 z" id="path6356" inkscape:connector-curvature="0"></path><path class="st2" d="m 989.58,410.69 c -8.12,-11.28 -9.26,-12.65 -11.45,-13.52 -4,-1.62 -11.89,-2.85 -44.43,-7.05 -45.53,-5.89 -61.71,-6.31 -148.75,-7.83 -24.72,-0.44 -53.1,-0.31 -70.86,0 -87.04,1.52 -103.22,1.94 -148.75,7.83 -32.55,4.21 -40.43,5.43 -44.43,7.05 -2.19,0.87 -3.32,2.24 -11.45,13.52 -18.01,25.12 -32.41,46.91 -45.94,69.53 -5.91,9.89 -16.87,29.83 -16.91,30.76 -0.08,1.86 55.04,-8.97 279.17,-8.47 108.52,0.23 205.17,-1.4 324,8.63 1.45,0.11 2.66,0.05 2.65,-0.16 -0.04,-0.73 -18.91,-38.98 -62.85,-100.29 z m -248.43,0.62 c 5.65,-2.35 11.46,-2.29 16.63,0.05 0.3,-2.45 1.11,-5.48 2.45,-7.72 -0.72,3.2 -0.94,6.71 -0.81,9.08 0.03,0.48 -0.33,0.89 -0.8,0.92 -1.07,0.06 -6.92,-3.82 -17.89,-0.08 -0.82,0.28 -1.32,-0.15 -1.37,-0.71 -0.04,-0.51 0.72,-3.11 -0.75,-7.03 -0.28,-0.74 -0.61,-1.48 -1.02,-2.18 1.95,1.77 3.39,4.72 3.56,7.67 z m -39.04,4.12 c 0.97,-2.29 3.27,-3.89 5.68,-3.95 8.19,0.02 11.07,0.12 30.53,-1.03 -9.96,1.95 -22.19,3.01 -30.44,3.03 -1.68,0.07 -3.25,1.22 -3.88,2.79 -0.16,0.38 0.04,-0.2 -3.62,11.71 0.19,1.56 2.28,2.27 3.78,2.58 4.22,0.74 14.75,1.49 19.48,1.77 17.2,1.02 34.08,1.07 52.44,-0.05 4.83,-0.31 14.65,-0.96 19.48,-1.77 1.5,-0.3 3.55,-0.98 3.78,-2.53 l -3.59,-11.71 c -0.62,-1.59 -2.19,-2.77 -3.9,-2.85 -10.28,-0.17 -20.92,-1.26 -30.44,-2.96 10.29,0.8 20.17,1.27 30.52,1.1 2.39,0.04 4.69,1.61 5.67,3.88 0.43,1.01 3.93,11.88 4,12.17 0.13,1.98 -1.02,3.16 -2.1,3.94 -2.51,1.65 -5.99,1.76 -10.11,2.21 -31.27,3.11 -72.88,1.41 -85.67,-0.9 -1.16,-0.25 -2.34,-0.61 -3.46,-1.34 -1.08,-0.78 -2.22,-1.94 -2.1,-3.91 0.04,-0.23 3.65,-11.44 3.95,-12.18 z m 208.03,62.3 c -1.06,-2.36 -2.41,-4.59 -4.14,-6.49 -1.48,-1.63 -3.34,-3.15 -5.25,-3.37 -2.77,-0.32 -27.62,-2.09 -37.37,-1.57 -6.14,0.29 -11.8,1.42 -14.69,2.91 -2.79,1.45 -3.68,3.4 -6.96,15.15 -1.36,4.92 -2.59,8.31 -3.06,8.41 -0.9,0.26 -177.33,0.28 -178.3,0 -0.47,-0.09 -1.7,-3.48 -3.06,-8.41 -3.28,-11.75 -4.17,-13.7 -6.96,-15.15 -2.89,-1.49 -8.56,-2.62 -14.69,-2.91 -9.76,-0.53 -34.61,1.25 -37.37,1.57 -1.91,0.22 -3.77,1.74 -5.25,3.37 -3.21,3.53 -3.98,6.14 -10.7,21.18 0.5,-21.79 14.97,-26.83 14.97,-26.83 -1.49,-5.58 -4.08,-14.71 -4.06,-15.27 0.03,-0.73 9.03,-4.44 14.03,-5.8 2.52,-0.72 6.72,-1.56 9.33,-1.96 10.58,-1.48 77.27,-3.26 115.17,-3.05 0.12,0 22.12,0.08 35.49,0 37.9,-0.21 104.58,1.57 115.17,3.05 2.61,0.4 6.81,1.24 9.33,1.96 5,1.36 14,5.07 14.03,5.8 0.02,0.56 -2.56,9.67 -4.06,15.27 0,0 14.48,5.03 14.97,26.83 z" id="path6358" inkscape:connector-curvature="0" style="clip-rule:evenodd;fill-rule:evenodd"></path><g id="g6368"><path class="st2" d="m 1174.37,664.66 c -3.39,-26.64 -6.92,-45.15 -10.43,-54.46 -4.22,-11.3 -10.47,-18.26 -23.45,-26.02 -11.04,-6.65 -54.88,-31.64 -55.13,-36.99 -0.03,-0.83 -7.22,-13.86 -9.42,-17.1 -9.27,-13.79 -20.24,-12.62 7.35,-13.91 30.89,-1.48 34.6,-2.6 37.31,-11.33 1.56,-5.1 1.14,-14.45 -0.84,-18.43 -4.21,-8.51 -17.78,-15.34 -35.91,-18.07 -4.73,-0.7 -26.16,-1.01 -28.33,2.95 -0.59,1.1 1.17,15.19 3.65,28.95 2.68,14.7 2.74,8.65 -22.92,-34.54 -12.56,-21.24 -25.23,-40.33 -34.2,-51.58 -5.79,-7.23 -17.26,-18.81 -23.52,-23.72 -9.36,-7.3 -15.4,-9.21 -39.9,-12.4 -115.24,-15.03 -318.68,-7.77 -378.25,0 -24.5,3.19 -30.54,5.1 -39.9,12.4 -6.26,4.91 -17.73,16.49 -23.52,23.72 -8.96,11.25 -21.63,30.34 -34.19,51.58 -25.8,43.42 -25.55,49.13 -22.93,34.54 2.48,-13.76 4.25,-27.85 3.66,-28.95 -0.99,-1.82 -5.46,-2.82 -14.61,-3.29 -6.03,-0.31 -10.21,-0.19 -13.73,0.33 -18.13,2.73 -31.7,9.56 -35.91,18.07 -1.99,3.98 -2.4,13.33 -0.84,18.43 2.7,8.73 6.43,9.85 37.31,11.33 27.44,1.28 16.78,0.03 7.35,13.91 -2.18,3.24 -9.38,16.27 -9.42,17.1 -0.24,5.22 -41.94,29.02 -55.12,36.99 -12.98,7.76 -19.23,14.73 -23.46,26.02 -3.5,9.31 -7.04,27.83 -10.43,54.46 -6.68,52.78 -1.22,158.52 2.45,189.57 0.55,4.96 3.11,12.68 4.89,14.99 0.38,0.5 1.4,5.55 2.3,11.25 1.7,11.33 3.48,19.01 4.67,24.48 l -2.39,0.94 c -3.02,1.17 -6.63,4.13 -6.69,5.45 -0.06,1.17 1.71,3.1 4,4.43 4.23,2.41 25.03,5.13 60.41,7.86 20.73,1.59 151.34,7.31 178.07,7.8 98.72,1.81 309.33,0.83 354.31,0 26.72,-0.49 157.33,-6.21 178.06,-7.8 35.38,-2.73 56.18,-5.45 60.41,-7.86 2.3,-1.33 4.06,-3.25 4.01,-4.43 -0.06,-1.32 -3.69,-4.27 -6.69,-5.45 l -2.39,-0.94 1.54,-7.05 c 2.47,-11.56 4.44,-27.4 5.42,-28.68 1.78,-2.3 4.33,-10.03 4.89,-14.99 2.5,-21.11 4.72,-63.12 5.58,-105.54 0.61,-30.04 -0.69,-64.94 -3.12,-84.02 z m -115.96,-191.79 2.16,-0.58 c 3.92,-1.02 18.52,-1.35 23.87,-0.53 21.49,3.35 29.47,12.16 29.81,12.35 -19.01,-0.8 -50.25,1.24 -48.32,2.23 1.03,0.51 10.86,1.06 19.91,1.11 6.25,0.02 25.2,-1.73 27.98,-2.55 3.14,-0.98 5.66,9.73 4.02,17.3 -0.73,3.44 -0.95,3.8 -2.07,3.54 -3.53,-0.74 -25.49,-0.3 -35.55,0.72 -5.93,0.59 -10.84,1.2 -10.97,1.3 -0.13,0.15 2,0.5 4.74,0.83 5.48,0.6 33.85,-0.47 39.56,-1.51 3.26,-0.61 3.26,-0.61 2.33,0.58 -2.42,3.03 -6.52,3.64 -31.6,4.91 -20.3,1.02 -21.09,1.02 -21.72,-0.02 -0.87,-1.52 -0.81,-1.73 0.53,-1.79 1.04,-0.05 1.12,-0.3 0.74,-2.22 -3.38,-17.08 -5.4,-35.57 -5.42,-35.67 z m -643.66,39.71 c -25.08,-1.27 -29.18,-1.89 -31.61,-4.91 -0.92,-1.19 -0.92,-1.19 2.35,-0.58 5.7,1.03 34.08,2.11 39.55,1.51 2.74,-0.33 4.88,-0.68 4.74,-0.83 -0.13,-0.11 -5.04,-0.71 -10.96,-1.3 -10.08,-1.02 -32.03,-1.46 -35.56,-0.72 -1.12,0.26 -1.34,-0.1 -2.06,-3.54 -1.65,-7.57 0.87,-18.29 4.02,-17.3 2.79,0.82 21.73,2.58 27.98,2.55 9.04,-0.06 18.87,-0.6 19.9,-1.11 1.93,-0.99 -29.21,-3.04 -48.32,-2.23 l 2.61,-2.2 c 4.89,-4.15 16.41,-8.47 27.21,-10.16 5.34,-0.82 19.95,-0.49 23.87,0.53 l 2.16,0.58 c -1.53,13.4 -4.63,31.63 -5.43,35.68 -0.39,1.92 -0.3,2.17 0.74,2.22 1.34,0.06 1.4,0.27 0.52,1.79 -0.62,1.04 -1.43,1.04 -21.71,0.02 z m -82.16,120.48 c 3.77,-20.69 8.11,-30.86 16.37,-38.22 3.47,-3.07 8.33,-6.21 24.65,-15.83 41.37,-24.36 40.35,-25.79 45.02,-34.83 4.74,-9.22 7.94,-13.9 13.15,-19.31 3.66,-3.79 4.92,-5.81 13.63,-21.86 19.94,-36.83 39.47,-68.35 53.06,-85.52 5.55,-7.04 16.71,-18.69 21.9,-22.89 7.57,-6.15 11.79,-8.27 20.41,-10.26 4.62,-1.07 31.74,-4.7 46.38,-6.19 70.01,-7.17 255.78,-7.06 324.69,0 14.66,1.5 41.77,5.13 46.38,6.19 8.62,1.99 12.85,4.12 20.41,10.26 5.19,4.2 16.35,15.85 21.91,22.89 13.59,17.17 33.13,48.69 53.05,85.52 8.7,16.04 9.97,18.07 13.64,21.86 5.21,5.41 8.4,10.09 13.14,19.31 4.65,9.01 3.56,10.42 45.02,34.83 16.32,9.62 21.2,12.76 24.65,15.83 8.26,7.36 12.61,17.53 16.37,38.22 1.95,10.63 1.99,9.86 -0.55,9.43 -2.84,-0.47 -45.13,-0.27 -48.03,-0.26 -1.36,-22.05 -0.39,-35.91 -6.02,-55.22 -2.02,-6.88 -5.95,-15.38 -7.84,-16.92 -0.62,-0.49 -4.13,-2.06 -7.81,-3.49 -18.57,-7.22 -5.83,-6.77 -25.96,-7.18 -1.62,-21.06 1.51,-31.34 -17.78,-41.39 -8.7,-4.58 -9.08,-4.94 -9.74,-5.3 14.22,11.04 25,8.55 24.55,38.04 l -0.12,8.09 c -2.42,0.08 -27.21,0.9 -30.2,1 -1.03,1.46 -12.08,4.85 -30.71,58.26 l -4.38,12.67 c -7.64,0.12 -13.84,0.2 -14.04,0.06 -0.1,-0.1 1.56,-4.24 3.73,-9.23 9.66,-22.5 18.55,-37.43 30.69,-51.66 11.02,-12.93 -4.31,2.37 -13.56,15.66 -10.45,14.93 -17.02,29.52 -24.05,45.25 -162.28,3.28 -262.33,5.12 -470.17,0 -7.13,-15.88 -13.52,-30.2 -24.06,-45.25 -9.25,-13.29 -24.58,-28.6 -13.56,-15.66 12.15,14.24 21.04,29.17 30.7,51.66 2.16,5 3.84,9.14 3.72,9.23 -0.24,0.17 -9.97,0 -14.04,-0.06 l -4.38,-12.67 c -18.56,-53.21 -29.79,-56.95 -30.71,-58.26 -10.56,-0.35 -19.64,-0.65 -30.2,-1 l -0.12,-8.09 c -0.44,-29.52 10.36,-27.02 24.56,-38.04 -1.85,1.02 -0.22,0.29 -9.74,5.3 -19.04,9.92 -16.21,19.93 -17.79,41.39 -20.1,0.41 -7.44,-0.04 -25.95,7.18 -3.7,1.42 -7.19,3 -7.82,3.49 -1.87,1.54 -5.81,10.04 -7.82,16.92 -4.59,15.69 -4.62,24.33 -6.03,55.22 -2.73,-0.01 -45.21,-0.21 -48.02,0.26 -2.55,0.43 -2.52,1.2 -0.58,-9.43 z m 721.14,23.17 c 4.29,1.12 12.74,0.69 17.07,-0.87 7.91,-2.84 14.3,-8.69 17.71,-16.17 l 1.9,-4.18 4.6,-0.19 c 9.38,-0.31 13.44,0.96 4.06,0.96 l -7.93,0.37 -1.86,4.35 c -2.98,7.05 -8.32,12.44 -15.48,15.65 -4.52,2.02 -6.89,2.48 -13.27,2.6 -5.54,0.12 -6.21,0.01 -10.43,-1.84 -3.66,-1.59 -5.43,-2.84 -9.48,-6.78 -6.74,-6.54 -8.41,-10.62 -9.21,-11.75 -5.29,0.1 -7.08,0.17 -14.29,0.07 -11.1,-0.15 2.66,-0.59 14.9,-1.28 l 2.12,2.92 c 5.94,8.42 13.41,14.56 19.59,16.14 z m 1.71,-57.45 c 16.77,-5.34 33.82,7.13 34.58,25.29 0.34,8.25 -2.13,15.02 -7.58,20.77 -2.76,2.94 -7.96,6.26 -11.35,7.26 -2.89,0.83 -9.96,1.16 -12.94,0.61 -10.16,-1.92 -18.92,-10.88 -21.17,-21.64 -2.91,-13.84 5.24,-28.07 18.46,-32.29 z m 37.01,24.77 c 2.93,-2.02 8.2,-2.54 11.25,-1.38 -2.73,1.88 -8.02,2.62 -11.25,1.38 z m 11.57,5.38 c -3.01,1.55 -8.47,1.61 -11.57,0 3.11,-1.61 8.55,-1.55 11.57,0 z m -12.89,-10.94 c 3.11,-2.05 8.73,-2.67 11.93,-1.55 -0.94,0.61 -8.46,2.75 -11.93,1.55 z m -19.29,41.87 c 16.69,-2.37 25.97,-4.02 28.74,-5.13 2.35,-0.9 5.26,-4.83 6.44,-8.63 2.58,-8.12 1.4,-25.42 1.39,-37.28 -0.19,-0.01 -9.44,-0.33 -10.1,-0.36 -0.77,-3.27 -2.32,-11.77 -4.75,-16.97 v 18.77 c 3.48,-0.07 6.96,-0.05 10.46,0.2 -4.27,0.83 -8.54,1.34 -12.83,1.74 -0.1,0.01 -0.56,0.04 -0.87,-0.51 -3.03,-5.1 -7.15,-9.73 -11.96,-13.08 h -0.1 v -0.07 c -1.18,-0.87 -2.46,-1.54 -3.72,-2.25 -9.96,-4.32 -18.67,-3.96 -28.71,3.58 -4.65,3.67 -8.71,8.29 -11.89,13.37 -0.22,0.4 -0.56,0.52 -0.86,0.5 -4.7,-0.36 -9.82,-0.85 -14.55,-1.5 -1.8,4.45 -1.49,3.81 -2.9,7.43 5.2,-1.03 11.61,-0.66 15.36,0.58 -4.03,1.37 -11.03,1.58 -15.81,0.49 -0.47,1.15 -1.16,2.85 -1.87,4.75 4.92,-1.06 12.16,-0.95 16.62,0.47 -4.61,1.47 -12.06,1.52 -16.96,0.4 -0.54,1.46 -1.1,3 -1.6,4.49 5.13,-1.03 13.21,-0.95 18.2,0.49 -4.52,1.3 -12.53,1.66 -18.5,0.43 -4.05,12.88 -0.98,10.86 3.35,10.83 7.89,-0.03 4.17,-0.26 15.29,0.05 0.52,0.93 2.92,6.15 5.36,8.95 4.78,5.43 17.37,8.83 17.46,8.88 -2.35,0.11 8.51,-0.41 -22.97,1.1 l 0.07,-3.71 c 0.07,-4.71 0.99,-4.48 -13.35,-4.06 -0.63,0.57 -8.48,7.03 -8.48,8.2 0.03,0.74 2.09,0.84 12.9,0.62 16.03,-0.27 27.4,-0.88 26.94,-0.32 -1.16,1.31 -31,2.8 -40.51,2.03 -7.86,-0.61 -11.35,-1.31 -11.36,-2.31 -0.21,-5.58 17.52,-54 27.1,-73.89 2.26,-4.76 4.47,-8.81 6.93,-13.09 7.33,-12.48 8.75,-11.71 12.92,-12.25 2.44,-0.32 11.1,-0.55 19.23,-0.55 16.26,0.04 20.93,0.72 27.7,4.05 3.8,1.87 8.78,6.43 11.13,10.2 2.21,3.58 5.5,12.77 8.19,22.91 2.22,8.22 2.22,8.4 2.94,23.89 1.01,22.13 0.15,28.67 -4.28,31.92 -4.75,3.56 -13.22,5 -37.69,6.46 -23.43,1.35 -19.88,1.29 1.9,-1.82 z m -589.1,-6.04 c -14.34,-0.42 -13.43,-0.66 -13.36,4.06 l 0.08,3.71 c -2.35,-0.11 8.51,0.41 -22.98,-1.1 0.25,-0.1 12.53,-3.27 17.46,-8.88 2.54,-2.88 4.72,-7.8 5.36,-8.95 2.24,-0.01 -2.73,-0.13 15.29,-0.05 4.34,0.03 7.4,2.03 3.35,-10.83 -5.66,1.16 -13.67,0.96 -18.49,-0.43 5.06,-1.46 13.17,-1.51 18.19,-0.49 -0.49,-1.48 -1.04,-3.03 -1.6,-4.49 -5.03,1.15 -12.4,1.04 -16.96,-0.4 4.43,-1.4 11.6,-1.56 16.63,-0.47 -0.73,-1.9 -1.41,-3.6 -1.88,-4.75 -4.47,1.04 -11.57,0.95 -15.81,-0.49 3.68,-1.22 9.98,-1.63 15.37,-0.58 -0.45,-1.04 -0.97,-2.63 -2.91,-7.43 -2.25,0.31 -4.51,0.58 -6.77,0.8 -8.82,0.93 -8.19,0.83 -8.63,0.2 -3.17,-5.08 -7.24,-9.71 -11.89,-13.37 -5.11,-3.84 -8.95,-5.36 -13.88,-6.17 -0.31,0.04 -9.74,-1.62 -18.54,4.84 v 0.07 h -0.1 c -4.82,3.35 -8.93,7.97 -11.96,13.08 l -0.06,0.08 c -0.17,0.3 -0.5,0.45 -0.82,0.43 -4.28,-0.4 -8.56,-0.91 -12.82,-1.74 3.49,-0.25 6.97,-0.27 10.45,-0.2 V 591.5 c -2.46,5.25 -4.05,14.02 -4.75,16.97 -6.29,0.22 -3.74,0.13 -10.09,0.36 -0.33,18.65 -0.76,30.51 1.38,37.28 1.18,3.8 4.1,7.72 6.45,8.63 2.77,1.1 12.04,2.75 28.74,5.13 21.8,3.11 25.31,3.17 1.86,1.83 -24.47,-1.46 -32.94,-2.9 -37.69,-6.46 -4.43,-3.25 -5.28,-9.79 -4.28,-31.92 0.72,-15.49 0.73,-15.66 2.94,-23.89 2.7,-10.15 5.99,-19.33 8.19,-22.91 2.36,-3.77 7.33,-8.33 11.14,-10.2 6.76,-3.32 11.43,-4.01 27.7,-4.05 24.33,0 23.54,0.97 26.04,3.71 3.8,4.09 10.62,17.08 13.04,22.17 9.58,19.89 27.31,68.31 27.1,73.89 -0.01,1.01 -3.5,1.71 -11.36,2.31 -9.51,0.77 -39.36,-0.72 -40.5,-2.03 -0.48,-0.55 10.66,0.05 26.93,0.32 10.82,0.23 12.86,0.12 12.9,-0.62 0.07,-1.17 -7.85,-7.64 -8.46,-8.2 z m -76.15,-30.27 c -3.19,1.22 -8.45,0.53 -11.26,-1.38 3.08,-1.17 8.36,-0.61 11.26,1.38 z m -10.62,-7.12 c 3.3,-1.14 8.87,-0.46 11.93,1.55 -3.45,1.21 -9.03,0.37 -11.93,-1.55 z m 10.62,12.5 c -3.26,1.68 -8.72,1.48 -11.57,0 2.89,-1.51 8.35,-1.65 11.57,0 z m -10.82,6.1 c 2.92,-0.5 12,-0.05 12.85,-0.01 l 1.91,4.18 c 3.4,7.49 9.79,13.34 17.71,16.17 4.33,1.55 12.78,1.98 17.06,0.87 11.42,-2.91 20.94,-18.18 21.71,-19.04 l 10.67,0.61 c 10.29,0.55 10.45,0.59 4.23,0.68 -6.95,0.09 -8.69,0.03 -14.27,-0.07 -0.82,1.14 -2.46,5.21 -9.22,11.75 -4.03,3.94 -5.8,5.19 -9.48,6.78 -4.21,1.85 -4.89,1.96 -10.43,1.84 -6.38,-0.12 -8.75,-0.58 -13.26,-2.6 -7.15,-3.22 -12.49,-8.6 -15.48,-15.65 l -1.86,-4.35 -7.94,-0.37 c -6.39,-0.03 -5.93,-0.48 -4.2,-0.79 z M 409,624.06 c 0.76,-18.15 17.81,-30.63 34.58,-25.29 13.22,4.22 21.37,18.45 18.48,32.28 -2.25,10.76 -11.01,19.72 -21.19,21.64 -2.98,0.56 -10.06,0.23 -12.95,-0.61 -3.39,-1 -8.58,-4.32 -11.34,-7.26 -5.45,-5.73 -7.9,-12.51 -7.58,-20.76 z m 594.58,260.4 c -17.8,1.07 -42.33,2.8 -54.44,3.89 -30.4,2.74 -89.03,5.97 -114.53,6.29 -32.99,0.48 -131.01,0.57 -170.2,0 -25.5,-0.32 -84.13,-3.55 -114.52,-6.29 -26.48,-2.39 -69.35,-4.77 -86.86,-5.79 18.47,0.37 33.19,0.45 69.61,2.76 53.76,3.35 123.32,6.36 146.75,6.3 22.97,0 -65.89,0 140.23,0 23.43,0.06 92.98,-2.95 146.74,-6.3 18.91,-1.2 40.44,-2.21 51.14,-2.4 24.87,-0.48 28.86,-0.96 -13.92,1.54 z M 885.74,751.6 c 90.3,-1.2 89.44,-1.2 95.94,1.66 3.61,1.6 7.54,5.61 8.17,8.37 0.33,1.54 0.8,97.4 0.2,117.05 -2.97,0.13 -1.84,0.08 -4.92,0.23 0.11,-3.85 0.25,-6.94 0.23,-21.36 -0.01,-11.07 -0.18,-14.23 -0.74,-14.55 -0.51,-0.29 -0.67,-2.4 -0.68,-8.67 0,-15.1 0.23,-58.16 -0.34,-60.49 -0.22,-1.03 -1.26,-2.68 -2.29,-3.75 -3.51,-3.48 -4.06,-3.52 -46.17,-3.11 -410.52,3.85 -409.73,-4.5 -417.42,3.11 -1.02,1.07 -2.07,2.72 -2.28,3.75 -0.24,1 -0.42,13.17 -0.38,27.02 0.1,39.09 0.15,41.71 -0.65,42.15 -0.55,0.32 -0.72,3.48 -0.74,14.55 0,15.3 0.11,17.1 0.24,21.36 -3.09,-0.15 -1.95,-0.1 -4.94,-0.23 -0.62,-20.1 -0.12,-115.54 0.21,-117.05 0.62,-2.75 4.57,-6.76 8.16,-8.37 6.52,-2.86 5.64,-2.86 95.95,-1.66 99.97,1.34 160.67,1.49 272.45,-0.01 z m -304.93,42.12 c -12.98,-0.29 -29.69,-1.04 -42.23,-4.26 -2.19,-0.63 -4.43,-1.26 -6.36,-2.53 8.34,4.83 38.84,4.89 48.38,4.81 -0.69,-6.57 -1.25,-13.12 -1.39,-19.78 1.73,6.4 3.11,13.2 4.29,19.76 35.33,-0.14 62.51,-0.02 96.64,0.26 -0.57,-5.77 -1.02,-11.56 -1.15,-17.39 1.98,7.35 3.01,13.2 3.86,17.41 87.52,0.74 42.3,0.81 132.88,0.07 1.1,-5.58 1.97,-10.44 3.87,-17.49 -0.13,5.86 -0.58,11.67 -1.15,17.46 17.57,-0.14 82.12,-0.47 96.67,-0.44 1.18,-6.56 2.54,-13.25 4.27,-19.65 -0.14,6.65 -0.7,13.14 -1.38,19.67 12.68,0.07 30.61,-0.11 43.05,-2.6 1.83,-0.41 4.86,-1.12 6.45,-2.1 -3.07,2.06 -9.45,3.44 -13.04,4.08 -12.44,2.29 -27.4,2.65 -36.7,2.83 -1.14,9.99 -2.16,17.07 -3.85,26.93 3.84,-0.02 14.24,0.14 20.08,-0.08 7.27,-0.18 27.17,-1.03 33.51,-4.71 -3.12,2.04 -9.41,3.35 -13.05,3.97 -12.54,2.22 -28.16,2.73 -40.89,2.92 -0.13,0 -1.5,9.14 -4.24,19.27 0.14,-6.74 0.68,-12.8 1.33,-19.21 -27.55,0.52 -48.63,0.9 -96.67,1.28 -1.15,6.6 -2.7,14.15 -4.44,20.57 0.14,-6.58 0.72,-13.75 1.47,-20.54 -72.18,0.56 -55.64,0.5 -123.45,-0.07 0.74,6.76 1.34,14.06 1.47,20.62 -1.74,-6.43 -3.29,-14 -4.45,-20.64 -25.95,-0.22 -84.39,-0.93 -96.65,-1.13 0.65,6.43 1.18,12.36 1.32,19.14 -1.75,-6.46 -3.01,-12.77 -4.19,-19.18 -14.15,-0.28 -32.08,-0.57 -46.51,-4.39 -2.18,-0.64 -4.43,-1.29 -6.34,-2.58 0.98,0.6 2.08,0.93 3.15,1.27 12.28,3.6 36.63,3.45 49.28,3.41 -1.85,-10.82 -2.78,-17.62 -3.84,-26.96 z m 58.79,53.73 c 56.1,1.38 51.84,1.14 55.06,2.93 2.62,1.44 3.26,1.53 13.93,1.97 6.72,0.27 75.07,0.27 81.87,0 10.67,-0.44 11.3,-0.53 13.93,-1.97 3.21,-1.79 -1.04,-1.55 55.05,-2.93 59.55,-1.46 115.15,-3.26 119.06,-3.89 l 3.54,-0.55 c 0.14,27.53 0.13,15.34 0.06,36.3 l -19.53,1.44 c -20.06,1.5 -92.57,4.06 -123.03,4.37 -106.15,1.06 -128.31,0.51 -179.99,0 -30.47,-0.31 -102.98,-2.87 -123.05,-4.37 l -19.52,-1.44 c -0.1,-19.4 -0.08,-11.05 0.05,-36.3 l 3.54,0.55 c 3.87,0.63 59.48,2.43 119.03,3.89 z m 534.91,-110.18 c -0.12,5.73 -0.28,12.76 -0.32,15.64 -0.57,33.73 -3.54,87.78 -5.59,102.07 -1.06,7.2 -3.09,11.53 -8.11,17.22 -3.53,3.99 -5.27,5.42 -9.5,7.83 -2.85,1.64 -6.95,3.38 -9.07,3.94 -6.44,1.69 -45.23,5.3 -67.73,6.4 -15.46,0.72 -14.89,0.9 -24.9,-8.32 l -7.18,-6.57 c -29.83,1.91 -18.81,1.2 -48.6,3.11 -0.22,-10.36 0.18,-114.83 -0.44,-117.21 -1.64,-6.59 -7.91,-11.46 -16.75,-13.1 -5.02,-0.94 -8.28,-1 -36.15,-0.63 -184.27,2.34 -204.38,2.24 -381.3,0 -27.88,-0.37 -31.14,-0.31 -36.15,0.63 -8.84,1.64 -15.11,6.51 -16.74,13.1 -0.62,2.38 -0.24,107.22 -0.45,117.21 -15.44,-0.99 -33.15,-2.12 -48.59,-3.11 l -7.18,6.57 c -10.02,9.22 -9.44,9.04 -24.9,8.32 -22.5,-1.09 -61.29,-4.71 -67.74,-6.4 -2.13,-0.56 -6.22,-2.3 -9.07,-3.94 -4.22,-2.41 -5.98,-3.84 -9.5,-7.83 -5.03,-5.68 -7.05,-10.01 -8.11,-17.22 -2.06,-14.29 -5.03,-68.34 -5.59,-102.07 -0.03,-2.88 -0.2,-9.91 -0.32,-15.64 -0.39,-16.16 1.8,-61.53 3.59,-74.78 2.3,-17.07 2.01,-16.01 4.39,-16.52 1.9,-0.44 48.32,-0.74 48.74,-0.33 0.09,0.11 0.44,2.21 0.74,4.65 0.66,5.45 1.68,6.81 6.28,8.63 26.63,10.43 119.52,11.27 120.42,10.38 0.76,-0.72 -0.86,-6.7 -6.17,-22.57 -2.29,-6.81 -4.09,-12.41 -4.02,-12.45 0.17,-0.14 14.42,-0.08 14.52,-0.08 10.58,25.2 18.39,42.99 15.66,45.09 -1.87,1.48 -14.2,1.32 -46.58,-0.51 -24.74,-1.41 -77.28,-4.39 -100.31,-13.81 -3.61,-1.46 -4.59,-1.33 -1.35,0.18 30.5,14.37 134.9,20.77 148.29,17.73 2.85,-0.66 3.62,-2.05 3.43,-6.16 -0.17,-4.45 -2.83,-11.94 -9.88,-28.23 -3.28,-7.52 -5.87,-13.75 -5.87,-13.99 0.62,-0.56 127.69,3.16 255.51,2.85 64.14,0 210.36,-3.19 210.74,-2.85 0.63,0.56 -15.36,32.66 -15.75,42.22 -0.18,4.11 0.58,5.49 3.43,6.16 11.37,2.59 74.6,-1.72 109.2,-7.46 14.57,-2.42 32.21,-7.02 39.1,-10.26 3.22,-1.51 2.24,-1.64 -1.35,-0.18 -6.21,2.54 -20.25,5.84 -33.93,7.97 -14.18,2.18 -35.95,4.11 -66.38,5.84 -32.39,1.83 -44.71,1.99 -46.59,0.51 -2.84,-2.21 6.02,-22.13 15.66,-45.09 5.49,-0.02 14.39,-0.03 14.52,0.08 0.07,0.04 -1.73,5.64 -4.02,12.45 -5.32,15.86 -6.93,21.85 -6.16,22.57 0.81,0.79 93.31,0.22 120.42,-10.38 4.59,-1.82 5.61,-3.18 6.28,-8.63 0.29,-2.44 0.64,-4.54 0.74,-4.65 0.42,-0.4 46.83,-0.11 48.74,0.33 2.37,0.51 2.09,-0.56 4.39,16.52 1.76,13.24 3.96,58.6 3.55,74.77 z" id="path6360" inkscape:connector-curvature="0" style="clip-rule:evenodd;fill-rule:evenodd"></path><path class="st2" d="m 814.54,821.09 c 47.89,-0.41 68.92,-0.38 96.35,-0.32 1.08,-9.51 1.99,-16.18 3.81,-26.87 -11.37,0.23 -79.35,1.01 -96.56,1.15 -0.97,8.94 -2.12,17.26 -3.6,26.04 z" id="path6362" inkscape:connector-curvature="0" style="clip-rule:evenodd;fill-rule:evenodd"></path><path class="st2" d="m 687.24,821.17 c 82.05,0.67 41.85,0.67 124.12,-0.05 1.24,-10.56 2.37,-17.78 3.82,-26.03 -69.57,0.58 -54.25,0.68 -131.76,0.05 1.61,9.13 2.73,16.71 3.82,26.03 z" id="path6364" inkscape:connector-curvature="0" style="clip-rule:evenodd;fill-rule:evenodd"></path><path class="st2" d="m 587.7,820.68 c 12.8,0 72.39,0.27 96.37,0.47 -1.5,-8.84 -2.63,-17.09 -3.61,-26.03 -51.62,-0.43 -67.04,-0.81 -96.59,-1.33 1.52,8.88 2.57,15.86 3.83,26.89 z" id="path6366" inkscape:connector-curvature="0" style="clip-rule:evenodd;fill-rule:evenodd"></path></g><path d="m 808.65,849.93 c -1.24,5.17 -4.49,11.4 -9.03,14.53 -0.65,0.36 -1.26,0.82 -1.98,1.06 -9.27,3.71 -37.33,3.31 -48.26,3.25 -9.96,0.03 -36.44,0.27 -46.17,-2.49 -2.81,-0.76 -3.08,-1.17 -4.12,-1.74 -4.66,-3.18 -7.7,-9.05 -8.99,-14.61 2.14,4.81 5.51,10.26 9.94,13.01 0.59,0.28 1.14,0.66 1.76,0.82 10.99,3.89 69.67,2.55 80.98,1.94 2.95,-0.14 9.52,-0.67 12.3,-1.36 1.24,-0.29 0.36,-0.01 1.9,-0.52 1.47,-0.36 4.88,-2.52 7.6,-6.47 1.62,-2.27 2.98,-4.78 4.07,-7.42 z" id="path6370" inkscape:connector-curvature="0"></path><path d="m 977.47,856.21 c -2.02,4.43 -3.57,8.39 -4.96,8.8 -8.33,2.47 -144.72,9.61 -195.75,9.98 -3.43,0.02 7.2,0.04 -54.49,0 -51.03,-0.37 -187.83,-7.38 -196.16,-9.85 -1.39,-0.41 -1.49,-1.16 -3.51,-5.59 -1.35,-2.91 -4.38,-10.45 -4.42,-10.21 -0.07,0.8 4.16,13.7 5.22,15.45 l 0.53,0.81 c 0.34,0.53 0.9,0.87 1.51,0.94 72.66,8.1 160.57,11.75 224.07,11.75 79.45,0 165.21,-5.28 214.31,-10.67 0,0 8.94,-0.72 10.72,-2.68 l 0.51,-0.79 c 1.07,-1.75 4.95,-12.03 4.88,-12.82 -0.03,-0.23 -1.11,1.97 -2.46,4.88 z" id="path6372" inkscape:connector-curvature="0"></path><g id="g6378"><path d="m 413.12,632.92 c 1.28,1.54 1.48,1.88 5.8,7.56 2.87,3.64 3.76,4.45 6.28,6.97 -6.06,-1.13 -11.4,-8.56 -12.08,-14.53 z" id="path6374" inkscape:connector-curvature="0"></path><path d="m 459.8,616.9 c -1.26,-1.58 -1.43,-1.89 -5.65,-7.67 -2.8,-3.7 -3.68,-4.53 -6.15,-7.1 6.04,1.26 11.24,8.79 11.8,14.77 z" id="path6376" inkscape:connector-curvature="0"></path></g><g id="g6384"><path d="m 1085.88,632.93 c -1.28,1.54 -1.48,1.88 -5.8,7.56 -2.87,3.64 -3.76,4.45 -6.28,6.97 6.06,-1.14 11.39,-8.57 12.08,-14.53 z" id="path6380" inkscape:connector-curvature="0"></path><path d="m 1039.19,616.91 c 1.26,-1.58 1.43,-1.89 5.65,-7.67 2.8,-3.7 3.68,-4.53 6.15,-7.1 -6.04,1.25 -11.23,8.79 -11.8,14.77 z" id="path6382" inkscape:connector-curvature="0"></path></g></g></svg>