<?xml version="1.0" encoding="UTF-8"?>
<svg viewBox="0 0 32 32" xmlns="http://www.w3.org/2000/svg">
<path d="m16 4c-6.6289 0-12 5.3711-12 12 0 5.3008 3.4375 9.8008 8.207 11.387 0.60156 0.10938 0.82031-0.25781 0.82031-0.57812 0-0.28516-0.011719-1.0391-0.015625-2.0391-3.3398 0.72266-4.043-1.6094-4.043-1.6094-0.54688-1.3867-1.332-1.7578-1.332-1.7578-1.0898-0.74219 0.082031-0.72656 0.082031-0.72656 1.2031 0.085938 1.8359 1.2344 1.8359 1.2344 1.0703 1.8359 2.8086 1.3047 3.4922 1 0.10938-0.77734 0.42188-1.3047 0.76172-1.6055-2.6641-0.30078-5.4648-1.332-5.4648-5.9297 0-1.3125 0.46875-2.3828 1.2344-3.2227-0.12109-0.30078-0.53516-1.5234 0.11719-3.1758 0 0 1.0078-0.32031 3.3008 1.2305 0.95703-0.26562 1.9844-0.39844 3.0039-0.40234 1.0195 0.003906 2.0469 0.13672 3.0039 0.40234 2.293-1.5508 3.2969-1.2305 3.2969-1.2305 0.65625 1.6523 0.24609 2.875 0.12109 3.1758 0.76953 0.83984 1.2305 1.9102 1.2305 3.2227 0 4.6094-2.8047 5.6211-5.4766 5.9219 0.42969 0.36719 0.8125 1.1016 0.8125 2.2188 0 1.6055-0.011718 2.8984-0.011718 3.293 0 0.32031 0.21484 0.69531 0.82422 0.57812 4.7656-1.5898 8.1992-6.0859 8.1992-11.387 0-6.6289-5.3711-12-12-12z" fill-rule="evenodd"/>
</svg>
