<?xml version="1.0" standalone="no"?>
<!DOCTYPE svg PUBLIC "-//W3C//DTD SVG 20010904//EN"
 "http://www.w3.org/TR/2001/REC-SVG-20010904/DTD/svg10.dtd">
<svg version="1.0" xmlns="http://www.w3.org/2000/svg"
 width="700.000000pt" height="700.000000pt" viewBox="0 0 700.000000 700.000000"
 preserveAspectRatio="xMidYMid meet">
<metadata>
Created by potrace 1.11, written by Peter Selinger 2001-2013
</metadata>
<g transform="translate(0.000000,700.000000) scale(0.100000,-0.100000)"
fill="#000000" stroke="none">
<path d="M3562 4309 c-187 -25 -219 -38 -647 -276 l-400 -222 -105 -6 c-176
-9 -505 -56 -850 -121 -278 -52 -419 -97 -625 -200 -117 -58 -144 -76 -279
-192 -79 -67 -86 -76 -86 -110 0 -20 4 -53 9 -72 6 -19 15 -53 20 -76 10 -37
14 -41 37 -36 31 6 31 7 -13 -140 -26 -87 -27 -88 -58 -88 -141 0 -137 -120 5
-160 19 -5 11 -9 -37 -14 -60 -8 -79 -20 -49 -32 8 -3 83 -12 168 -19 117 -11
307 -13 818 -11 683 4 3085 37 4090 56 593 11 918 31 1000 62 22 8 23 10 8 19
-27 15 -406 32 -872 39 -52 0 -15 19 66 33 70 12 77 12 87 -5 9 -15 25 -18 89
-18 74 0 290 22 362 36 93 18 194 103 246 206 38 76 29 97 -43 98 -21 0 -22 3
-22 128 0 194 -35 325 -121 457 -55 84 -52 131 10 196 62 66 30 89 -86 63 -61
-13 -101 -15 -191 -10 -62 4 -119 9 -126 11 -6 2 -83 11 -171 20 -87 9 -175
22 -195 30 -20 8 -238 66 -486 130 -247 64 -484 125 -525 136 -140 36 -279 61
-470 83 -134 15 -453 18 -558 5z m493 -29 c159 -14 355 -44 436 -66 14 -4 15
-11 6 -50 -12 -53 -3 -52 -160 -11 -231 62 -599 87 -765 52 -189 -39 -366
-138 -649 -359 l-122 -96 -63 0 -63 0 110 81 c158 117 389 269 486 319 101 52
94 46 80 64 -10 12 -4 17 36 29 26 9 82 21 123 26 41 6 86 13 100 15 55 8 342
5 445 -4z m1225 -290 c178 -52 294 -80 325 -80 28 0 111 -7 185 -15 74 -8 165
-18 203 -22 37 -3 67 -8 67 -11 0 -3 -10 -17 -22 -31 -21 -24 -21 -24 8 2 27
24 38 27 105 27 40 0 101 7 134 15 86 21 93 19 62 -12 -63 -66 -74 -154 -27
-213 48 -60 35 -58 -27 4 -69 69 -90 81 -191 107 -42 11 -79 24 -81 30 -2 8
-5 8 -10 1 -4 -7 -37 -6 -106 3 -152 21 -374 35 -530 33 l-140 -2 125 -3 c68
-2 127 -8 130 -13 3 -4 86 -34 185 -65 201 -63 392 -134 475 -175 52 -26 59
-27 130 -18 41 5 77 13 81 19 3 6 16 -12 27 -39 43 -99 55 -163 59 -318 6
-174 -1 -200 -68 -253 -44 -36 -48 -32 -19 17 11 17 16 32 12 32 -4 0 -95 -20
-202 -44 -107 -25 -209 -47 -226 -51 l-31 -6 -6 53 c-3 29 -9 67 -12 83 -6 26
-3 31 22 41 38 14 247 336 239 368 -8 32 -65 96 -84 95 -12 0 -10 -3 6 -10 14
-5 20 -13 16 -20 -4 -7 -3 -9 4 -5 12 7 52 -52 52 -77 0 -9 -6 -20 -12 -24 -7
-4 -24 -28 -37 -53 -47 -91 -166 -255 -184 -254 -9 1 -14 -2 -11 -7 3 -5 -2
-9 -10 -9 -11 0 -16 9 -16 29 0 16 -7 47 -15 70 -20 59 -114 189 -165 230 -96
77 -235 124 -365 124 -183 -1 -345 -81 -450 -224 -51 -69 -98 -163 -100 -199
0 -14 -2 -42 -3 -62 l-2 -37 -192 0 -193 0 130 44 c72 24 127 44 123 44 -4 1
-79 -19 -167 -42 -88 -24 -165 -41 -171 -37 -8 5 17 46 72 121 122 165 180
249 174 249 -2 0 -44 -55 -92 -122 -48 -68 -107 -149 -131 -181 -25 -31 -41
-62 -38 -67 4 -6 -10 -10 -35 -10 -30 0 -39 3 -34 13 5 6 20 30 35 52 83 123
129 276 172 575 l23 155 209 7 c114 5 210 10 213 12 2 3 6 33 9 68 4 53 2 66
-13 80 -27 23 -120 59 -255 98 l-116 33 9 40 c5 22 11 43 13 47 3 4 112 -24
242 -62 131 -38 362 -105 513 -148z m-1214 111 c147 -21 222 -35 232 -45 3 -4
-5 -51 -18 -105 l-23 -99 -56 -6 c-65 -6 -184 -13 -366 -21 -71 -4 -204 -10
-295 -15 -91 -6 -171 -10 -177 -10 -8 0 -13 13 -13 30 0 23 -7 35 -32 50 -18
11 -44 20 -58 20 -21 0 -22 2 -10 14 24 23 251 142 306 160 152 50 290 57 510
27z m-796 -236 c21 -11 30 -23 30 -40 0 -22 -4 -25 -34 -25 -19 0 -42 -3 -51
-6 -14 -6 -16 0 -11 37 2 24 5 45 5 47 3 7 36 0 61 -13z m1160 -77 c0 -51 -48
-341 -71 -430 -30 -121 -111 -278 -179 -348 -61 -64 -150 -112 -235 -129 -76
-15 -415 -31 -885 -41 -374 -9 -427 -8 -447 6 -13 8 -21 20 -17 26 4 6 3 8 -2
5 -34 -21 -49 46 -63 284 -16 288 7 379 129 500 l66 66 185 12 c101 6 220 16
264 21 93 11 375 27 660 36 165 5 388 14 563 22 30 2 32 0 32 -30z m-1803 -54
l74 -6 -25 -27 c-20 -21 -33 -26 -60 -23 -18 2 -36 0 -39 -5 -3 -5 8 -7 26 -5
l31 5 -17 -24 c-97 -135 -107 -168 -107 -356 0 -82 7 -209 14 -283 11 -99 12
-138 4 -148 -25 -30 -381 -223 -392 -212 -2 3 5 41 16 85 15 61 21 116 22 230
l1 150 -33 68 c-33 66 -94 127 -128 127 -8 0 -35 16 -61 37 -137 104 -329 151
-500 120 -169 -31 -294 -125 -373 -282 -42 -81 -44 -89 -48 -195 -3 -60 -9
-110 -14 -110 -5 0 -3 -6 5 -14 8 -9 17 -47 21 -96 4 -45 8 -87 9 -93 2 -13
-279 -18 -367 -6 -54 7 -66 19 -66 66 0 23 5 33 21 38 32 11 88 65 109 106 24
45 35 109 26 145 -7 25 -10 26 -54 21 -26 -3 -57 -9 -69 -12 -18 -6 -23 -2
-33 32 -6 21 -14 61 -17 89 l-6 51 69 55 c38 30 75 62 83 71 7 10 22 17 33 17
14 0 1 -14 -41 -46 -71 -53 -80 -64 -51 -64 19 0 122 13 192 25 l27 4 -36 -47
c-35 -46 -68 -110 -60 -118 2 -2 13 18 25 44 21 46 92 132 109 132 5 0 37 27
71 59 63 60 225 153 250 144 6 -3 12 0 12 5 0 13 126 56 140 47 5 -3 10 -2 10
4 0 5 6 11 13 14 6 2 3 3 -7 1 -11 -2 -29 2 -40 8 -19 11 -14 13 39 25 117 25
314 53 580 83 162 19 308 41 364 56 52 13 96 26 98 28 2 2 20 0 40 -4 20 -5
69 -12 110 -16z m3683 -114 l42 -50 -62 0 c-38 0 -59 4 -55 10 3 6 0 10 -7 10
-9 0 -10 3 -2 8 6 4 10 26 9 49 -2 37 0 41 15 33 10 -5 37 -32 60 -60z m-100
-54 c-7 -7 -13 -7 -20 0 -6 6 -3 10 10 10 13 0 16 -4 10 -10z m-4837 -10 c16
-12 13 -15 -30 -25 -83 -21 -259 -119 -325 -180 l-61 -56 -98 -10 -98 -10 36
30 c66 55 198 147 248 172 146 74 288 109 328 79z m198 -459 c-13 -13 -26 -3
-16 12 3 6 11 8 17 5 6 -4 6 -10 -1 -17z m3797 -23 c4 -27 -21 -47 -48 -39
-20 6 -28 44 -13 59 15 15 58 1 61 -20z m-3708 -19 c0 -8 -4 -15 -9 -15 -13 0
-22 16 -14 24 11 11 23 6 23 -9z m-62 -7 c30 -30 -13 -82 -45 -56 -24 20 -8
68 22 68 6 0 16 -5 23 -12z m3667 2 c3 -5 -1 -10 -10 -10 -9 0 -13 5 -10 10 3
6 8 10 10 10 2 0 7 -4 10 -10z m-3764 -13 c-1 -12 -15 -9 -19 4 -3 6 1 10 8 8
6 -3 11 -8 11 -12z m3919 -3 c0 -8 -4 -12 -10 -9 -5 3 -10 10 -10 16 0 5 5 9
10 9 6 0 10 -7 10 -16z m-4686 -56 c-3 -24 -6 -53 -8 -65 -2 -12 1 -20 5 -17
17 10 9 -12 -16 -46 -21 -28 -85 -80 -85 -68 0 1 14 46 30 98 17 51 30 104 30
117 0 18 6 23 24 23 22 0 24 -3 20 -42z m4040 -65 c-3 -54 -7 -126 -10 -159
l-5 -61 -57 4 c-184 13 -464 13 -997 -1 -330 -9 -695 -16 -812 -16 l-212 0
-45 75 c-50 83 -56 97 -27 71 17 -15 50 -16 427 -6 486 11 828 27 904 40 71
13 168 59 217 104 l40 36 264 3 c145 1 276 3 291 5 l26 2 -4 -97z m210 42 c13
-31 14 -37 3 -25 -8 8 -18 28 -22 45 -9 38 -2 31 19 -20z m356 30 c0 -8 -4
-15 -10 -15 -5 0 -10 7 -10 15 0 8 5 15 10 15 6 0 10 -7 10 -15z m-3700 -23
c0 -13 -12 -22 -22 -16 -10 6 -1 24 13 24 5 0 9 -4 9 -8z m3770 4 c0 -3 -4 -8
-10 -11 -5 -3 -10 -1 -10 4 0 6 5 11 10 11 6 0 10 -2 10 -4z m-3860 -16 c0 -5
-7 -10 -15 -10 -8 0 -15 5 -15 10 0 6 7 10 15 10 8 0 15 -4 15 -10z m3757 -82
c-3 -8 -6 -5 -6 6 -1 11 2 17 5 13 3 -3 4 -12 1 -19z m-2699 -98 c51 -87 60
-106 45 -97 -11 6 -413 -10 -443 -18 -14 -4 31 23 100 60 68 37 149 85 180
106 30 21 57 38 60 38 3 0 29 -40 58 -89z"/>
<path d="M6271 3843 c-29 -14 -84 -30 -121 -37 -68 -11 -103 -26 -62 -26 30 0
126 -37 156 -61 l25 -20 7 38 c7 42 28 89 52 116 20 23 8 21 -57 -10z"/>
<path d="M5010 3831 c69 -3 145 -3 170 0 25 4 -31 6 -125 6 -170 -1 -170 -1
-45 -6z"/>
<path d="M5225 3680 c3 -5 12 -10 20 -10 8 0 17 5 20 10 4 6 -5 10 -20 10 -15
0 -24 -4 -20 -10z"/>
<path d="M5407 3679 c8 -8 16 -8 30 0 16 9 14 10 -11 11 -22 0 -27 -3 -19 -11z"/>
<path d="M5065 3670 c-27 -7 -27 -8 -5 -8 14 0 39 4 55 8 27 7 27 8 5 8 -14 0
-38 -4 -55 -8z"/>
<path d="M5160 3670 c19 -13 30 -13 30 0 0 6 -10 10 -22 10 -19 0 -20 -2 -8
-10z"/>
<path d="M5478 3671 c12 -7 62 -4 62 5 0 2 -17 4 -37 4 -24 0 -33 -3 -25 -9z"/>
<path d="M5559 3667 c5 -5 21 -7 37 -5 27 3 26 4 -8 9 -22 3 -34 1 -29 -4z"/>
<path d="M4988 3653 c7 -3 16 -2 19 1 4 3 -2 6 -13 5 -11 0 -14 -3 -6 -6z"/>
<path d="M5658 3653 c6 -2 18 -2 25 0 6 3 1 5 -13 5 -14 0 -19 -2 -12 -5z"/>
<path d="M4925 3640 c-13 -5 -14 -9 -5 -9 8 0 24 4 35 9 13 5 14 9 5 9 -8 0
-24 -4 -35 -9z"/>
<path d="M5708 3643 c7 -3 16 -2 19 1 4 3 -2 6 -13 5 -11 0 -14 -3 -6 -6z"/>
<path d="M5748 3633 c6 -2 18 -2 25 0 6 3 1 5 -13 5 -14 0 -19 -2 -12 -5z"/>
<path d="M4827 3606 c-69 -29 -162 -84 -185 -110 -9 -10 6 -3 34 17 44 32 96
59 204 105 14 6 21 11 15 11 -5 0 -36 -10 -68 -23z"/>
<path d="M5809 3622 c9 -2 10 -6 3 -11 -5 -3 11 -6 36 -7 48 -1 35 9 -23 18
-16 3 -24 3 -16 0z"/>
<path d="M5969 3574 c41 -14 76 -23 78 -20 4 4 -130 47 -144 45 -4 -1 25 -12
66 -25z"/>
<path d="M4593 3458 c-11 -13 -24 -30 -28 -38 -8 -16 -6 -14 34 33 14 15 22
27 19 27 -2 0 -14 -10 -25 -22z"/>
<path d="M4668 3113 c7 -3 16 -2 19 1 4 3 -2 6 -13 5 -11 0 -14 -3 -6 -6z"/>
<path d="M3225 3609 c-43 -12 -105 -68 -140 -127 l-30 -50 -80 -6 c-103 -8
-162 -28 -213 -71 -103 -89 -108 -226 -11 -293 28 -20 43 -23 86 -19 85 9 125
50 235 242 32 57 36 60 76 63 23 2 42 0 42 -3 0 -3 -7 -22 -15 -42 -18 -43
-19 -85 -3 -101 18 -18 143 -16 162 4 9 8 16 19 16 24 0 18 -33 40 -61 40 -33
0 -33 1 -17 47 11 29 16 33 49 33 42 0 62 18 57 52 -2 17 -11 24 -31 26 -17 2
-27 8 -24 15 3 7 17 42 32 80 34 84 27 97 -49 96 -28 0 -65 -5 -81 -10z m25
-119 c-11 -28 -20 -53 -20 -55 0 -3 -16 -5 -35 -5 -19 0 -35 4 -35 8 0 15 50
76 73 89 36 20 38 16 17 -37z m-291 -227 c-65 -113 -84 -133 -125 -133 -61 0
-83 69 -41 130 41 61 93 87 179 89 l37 1 -50 -87z"/>
<path d="M3541 3606 c-16 -19 -151 -356 -151 -376 0 -29 23 -40 81 -40 60 0
83 14 77 47 -2 12 -14 19 -36 21 -21 2 -32 8 -29 15 89 219 126 319 121 332
-8 19 -48 20 -63 1z"/>
<path d="M3654 3426 c-39 -17 -71 -58 -85 -109 -20 -76 13 -127 82 -127 22 0
49 5 59 10 13 7 21 7 25 0 10 -16 92 -12 108 5 13 13 16 13 21 0 8 -22 53 -18
70 7 8 12 23 43 33 70 21 59 57 98 75 80 10 -10 8 -23 -6 -60 -28 -73 -29 -78
-11 -96 20 -20 113 -22 139 -3 29 21 16 51 -22 55 -36 4 -38 9 -17 59 8 19 15
48 15 64 0 37 -39 64 -78 54 -15 -4 -46 -7 -69 -6 -50 1 -56 -6 -98 -116 -27
-71 -37 -84 -50 -63 -3 6 -19 10 -35 10 l-29 0 25 60 c13 33 24 68 24 78 0 29
-19 42 -47 31 -15 -6 -31 -5 -43 1 -25 13 -48 12 -86 -4z m72 -71 c3 -8 -2
-31 -13 -52 -14 -29 -24 -38 -43 -38 -19 0 -26 6 -28 26 -6 50 68 106 84 64z"/>
<path d="M3738 2913 c6 -2 18 -2 25 0 6 3 1 5 -13 5 -14 0 -19 -2 -12 -5z"/>
<path d="M3853 2913 c9 -2 25 -2 35 0 9 3 1 5 -18 5 -19 0 -27 -2 -17 -5z"/>
<path d="M3378 2903 c12 -2 30 -2 40 0 9 3 -1 5 -23 4 -22 0 -30 -2 -17 -4z"/>
<path d="M3493 2903 c9 -2 25 -2 35 0 9 3 1 5 -18 5 -19 0 -27 -2 -17 -5z"/>
<path d="M3038 2893 c7 -3 16 -2 19 1 4 3 -2 6 -13 5 -11 0 -14 -3 -6 -6z"/>
<path d="M3148 2893 c12 -2 30 -2 40 0 9 3 -1 5 -23 4 -22 0 -30 -2 -17 -4z"/>
<path d="M2683 2883 c9 -2 23 -2 30 0 6 3 -1 5 -18 5 -16 0 -22 -2 -12 -5z"/>
<path d="M2793 2883 c9 -2 23 -2 30 0 6 3 -1 5 -18 5 -16 0 -22 -2 -12 -5z"/>
<path d="M2918 2883 c7 -3 16 -2 19 1 4 3 -2 6 -13 5 -11 0 -14 -3 -6 -6z"/>
<path d="M2470 3660 c0 -5 5 -10 11 -10 5 0 7 5 4 10 -3 6 -8 10 -11 10 -2 0
-4 -4 -4 -10z"/>
<path d="M2513 3663 c9 -2 25 -2 35 0 9 3 1 5 -18 5 -19 0 -27 -2 -17 -5z"/>
<path d="M2338 3653 c-37 -3 -48 -8 -47 -21 0 -10 3 -12 6 -4 2 6 22 12 43 12
21 0 42 5 45 10 3 6 5 9 3 8 -2 -1 -24 -3 -50 -5z"/>
<path d="M2413 3653 c9 -2 23 -2 30 0 6 3 -1 5 -18 5 -16 0 -22 -2 -12 -5z"/>
<path d="M2168 3633 c7 -3 16 -2 19 1 4 3 -2 6 -13 5 -11 0 -14 -3 -6 -6z"/>
<path d="M1990 3615 c0 -8 3 -15 6 -15 3 0 12 7 20 15 14 13 13 15 -5 15 -12
0 -21 -6 -21 -15z"/>
<path d="M2063 3623 c15 -2 39 -2 55 0 15 2 2 4 -28 4 -30 0 -43 -2 -27 -4z"/>
<path d="M1833 3613 c9 -2 25 -2 35 0 9 3 1 5 -18 5 -19 0 -27 -2 -17 -5z"/>
<path d="M1645 3600 c-24 -6 -19 -7 22 -6 29 1 56 5 59 9 9 9 -42 7 -81 -3z"/>
<path d="M1568 3583 c7 -3 16 -2 19 1 4 3 -2 6 -13 5 -11 0 -14 -3 -6 -6z"/>
<path d="M1528 3573 c7 -3 16 -2 19 1 4 3 -2 6 -13 5 -11 0 -14 -3 -6 -6z"/>
<path d="M1478 3563 c6 -2 18 -2 25 0 6 3 1 5 -13 5 -14 0 -19 -2 -12 -5z"/>
<path d="M1869 3528 c-54 -45 -85 -90 -38 -55 13 10 51 35 83 57 51 35 56 40
33 40 -16 0 -47 -17 -78 -42z"/>
<path d="M1943 3504 c-40 -25 -73 -50 -73 -55 0 -13 -5 -15 115 46 102 52 106
55 69 55 -29 0 -58 -12 -111 -46z"/>
<path d="M2095 3514 c-133 -68 -177 -96 -166 -107 7 -7 31 1 78 25 37 20 97
46 133 58 36 12 72 25 80 28 10 3 5 8 -15 12 -48 12 -57 11 -110 -16z"/>
<path d="M2145 3451 c-156 -57 -181 -69 -167 -83 8 -8 44 0 119 25 60 20 156
45 213 55 l105 19 -39 16 c-57 25 -88 21 -231 -32z"/>
<path d="M2480 3400 c0 -5 5 -10 10 -10 6 0 10 5 10 10 0 6 -4 10 -10 10 -5 0
-10 -4 -10 -10z"/>
<path d="M698 3104 c-5 -5 -28 -11 -50 -13 -5 -1 -8 -10 -8 -20 0 -16 5 -18
34 -11 19 4 37 5 40 2 4 -3 6 7 6 21 0 25 -9 34 -22 21z"/>
<path d="M730 3096 c0 -8 5 -18 10 -21 6 -3 10 3 10 14 0 12 -4 21 -10 21 -5
0 -10 -6 -10 -14z"/>
<path d="M800 3076 c0 -17 121 -155 149 -170 9 -5 -17 25 -56 65 -40 41 -73
82 -73 91 0 9 -4 20 -10 23 -5 3 -10 -1 -10 -9z"/>
<path d="M968 2878 c5 -5 16 -8 23 -6 8 3 3 7 -10 11 -17 4 -21 3 -13 -5z"/>
<path d="M6246 3652 c-3 -5 1 -9 9 -9 8 0 12 4 9 9 -3 4 -7 8 -9 8 -2 0 -6 -4
-9 -8z"/>
<path d="M4700 2710 c-23 -7 -23 -8 -3 -9 12 -1 25 4 28 9 3 6 5 10 3 9 -2 -1
-14 -5 -28 -9z"/>
</g>
</svg>
